%TF.GenerationSoftware,KiCad,Pcbnew,(6.0.1)*%
%TF.CreationDate,2022-04-04T17:19:20+02:00*%
%TF.ProjectId,PCB KiCad,50434220-4b69-4436-9164-2e6b69636164,rev?*%
%TF.SameCoordinates,Original*%
%TF.FileFunction,Legend,Top*%
%TF.FilePolarity,Positive*%
%FSLAX46Y46*%
G04 Gerber Fmt 4.6, Leading zero omitted, Abs format (unit mm)*
G04 Created by KiCad (PCBNEW (6.0.1)) date 2022-04-04 17:19:20*
%MOMM*%
%LPD*%
G01*
G04 APERTURE LIST*
%ADD10C,0.150000*%
%ADD11C,0.200000*%
%ADD12C,0.120000*%
%ADD13C,0.599999*%
%ADD14C,0.249999*%
G04 APERTURE END LIST*
D10*
X116070000Y-71650000D02*
X121820000Y-71650000D01*
X121820000Y-71650000D02*
X121820000Y-88380000D01*
X121820000Y-88380000D02*
X116070000Y-88380000D01*
X116070000Y-88380000D02*
X116070000Y-71650000D01*
G36*
X116070000Y-71650000D02*
G01*
X121820000Y-71650000D01*
X121820000Y-88380000D01*
X116070000Y-88380000D01*
X116070000Y-71650000D01*
G37*
X86000000Y-136750000D02*
G75*
G03*
X86000000Y-136750000I-3000000J0D01*
G01*
D11*
X93400000Y-136750000D02*
G75*
G03*
X93400000Y-136750000I-10400000J0D01*
G01*
D10*
X119847619Y-49685595D02*
X120847619Y-49685595D01*
X120847619Y-50066547D01*
X120800000Y-50161785D01*
X120752380Y-50209404D01*
X120657142Y-50257023D01*
X120514285Y-50257023D01*
X120419047Y-50209404D01*
X120371428Y-50161785D01*
X120323809Y-50066547D01*
X120323809Y-49685595D01*
X119847619Y-50828452D02*
X119895238Y-50733214D01*
X119990476Y-50685595D01*
X120847619Y-50685595D01*
X119847619Y-51637976D02*
X120371428Y-51637976D01*
X120466666Y-51590357D01*
X120514285Y-51495119D01*
X120514285Y-51304642D01*
X120466666Y-51209404D01*
X119895238Y-51637976D02*
X119847619Y-51542738D01*
X119847619Y-51304642D01*
X119895238Y-51209404D01*
X119990476Y-51161785D01*
X120085714Y-51161785D01*
X120180952Y-51209404D01*
X120228571Y-51304642D01*
X120228571Y-51542738D01*
X120276190Y-51637976D01*
X119895238Y-52066547D02*
X119847619Y-52161785D01*
X119847619Y-52352261D01*
X119895238Y-52447500D01*
X119990476Y-52495119D01*
X120038095Y-52495119D01*
X120133333Y-52447500D01*
X120180952Y-52352261D01*
X120180952Y-52209404D01*
X120228571Y-52114166D01*
X120323809Y-52066547D01*
X120371428Y-52066547D01*
X120466666Y-52114166D01*
X120514285Y-52209404D01*
X120514285Y-52352261D01*
X120466666Y-52447500D01*
X120514285Y-52780833D02*
X120514285Y-53161785D01*
X120847619Y-52923690D02*
X119990476Y-52923690D01*
X119895238Y-52971309D01*
X119847619Y-53066547D01*
X119847619Y-53161785D01*
X119847619Y-53495119D02*
X120514285Y-53495119D01*
X120847619Y-53495119D02*
X120800000Y-53447500D01*
X120752380Y-53495119D01*
X120800000Y-53542738D01*
X120847619Y-53495119D01*
X120752380Y-53495119D01*
X119895238Y-54399880D02*
X119847619Y-54304642D01*
X119847619Y-54114166D01*
X119895238Y-54018928D01*
X119942857Y-53971309D01*
X120038095Y-53923690D01*
X120323809Y-53923690D01*
X120419047Y-53971309D01*
X120466666Y-54018928D01*
X120514285Y-54114166D01*
X120514285Y-54304642D01*
X120466666Y-54399880D01*
X119895238Y-55542738D02*
X119847619Y-55685595D01*
X119847619Y-55923690D01*
X119895238Y-56018928D01*
X119942857Y-56066547D01*
X120038095Y-56114166D01*
X120133333Y-56114166D01*
X120228571Y-56066547D01*
X120276190Y-56018928D01*
X120323809Y-55923690D01*
X120371428Y-55733214D01*
X120419047Y-55637976D01*
X120466666Y-55590357D01*
X120561904Y-55542738D01*
X120657142Y-55542738D01*
X120752380Y-55590357D01*
X120800000Y-55637976D01*
X120847619Y-55733214D01*
X120847619Y-55971309D01*
X120800000Y-56114166D01*
X119895238Y-56971309D02*
X119847619Y-56876071D01*
X119847619Y-56685595D01*
X119895238Y-56590357D01*
X119942857Y-56542738D01*
X120038095Y-56495119D01*
X120323809Y-56495119D01*
X120419047Y-56542738D01*
X120466666Y-56590357D01*
X120514285Y-56685595D01*
X120514285Y-56876071D01*
X120466666Y-56971309D01*
X119847619Y-57828452D02*
X120371428Y-57828452D01*
X120466666Y-57780833D01*
X120514285Y-57685595D01*
X120514285Y-57495119D01*
X120466666Y-57399880D01*
X119895238Y-57828452D02*
X119847619Y-57733214D01*
X119847619Y-57495119D01*
X119895238Y-57399880D01*
X119990476Y-57352261D01*
X120085714Y-57352261D01*
X120180952Y-57399880D01*
X120228571Y-57495119D01*
X120228571Y-57733214D01*
X120276190Y-57828452D01*
X120514285Y-58304642D02*
X119847619Y-58304642D01*
X120419047Y-58304642D02*
X120466666Y-58352261D01*
X120514285Y-58447500D01*
X120514285Y-58590357D01*
X120466666Y-58685595D01*
X120371428Y-58733214D01*
X119847619Y-58733214D01*
X120514285Y-59209404D02*
X119847619Y-59209404D01*
X120419047Y-59209404D02*
X120466666Y-59257023D01*
X120514285Y-59352261D01*
X120514285Y-59495119D01*
X120466666Y-59590357D01*
X120371428Y-59637976D01*
X119847619Y-59637976D01*
X119895238Y-60495119D02*
X119847619Y-60399880D01*
X119847619Y-60209404D01*
X119895238Y-60114166D01*
X119990476Y-60066547D01*
X120371428Y-60066547D01*
X120466666Y-60114166D01*
X120514285Y-60209404D01*
X120514285Y-60399880D01*
X120466666Y-60495119D01*
X120371428Y-60542738D01*
X120276190Y-60542738D01*
X120180952Y-60066547D01*
X119847619Y-60971309D02*
X120514285Y-60971309D01*
X120323809Y-60971309D02*
X120419047Y-61018928D01*
X120466666Y-61066547D01*
X120514285Y-61161785D01*
X120514285Y-61257023D01*
X118237619Y-49685595D02*
X119237619Y-49685595D01*
X119237619Y-49923690D01*
X119190000Y-50066547D01*
X119094761Y-50161785D01*
X118999523Y-50209404D01*
X118809047Y-50257023D01*
X118666190Y-50257023D01*
X118475714Y-50209404D01*
X118380476Y-50161785D01*
X118285238Y-50066547D01*
X118237619Y-49923690D01*
X118237619Y-49685595D01*
X118285238Y-51066547D02*
X118237619Y-50971309D01*
X118237619Y-50780833D01*
X118285238Y-50685595D01*
X118380476Y-50637976D01*
X118761428Y-50637976D01*
X118856666Y-50685595D01*
X118904285Y-50780833D01*
X118904285Y-50971309D01*
X118856666Y-51066547D01*
X118761428Y-51114166D01*
X118666190Y-51114166D01*
X118570952Y-50637976D01*
X118904285Y-51447500D02*
X118237619Y-51685595D01*
X118904285Y-51923690D01*
X118285238Y-52685595D02*
X118237619Y-52590357D01*
X118237619Y-52399880D01*
X118285238Y-52304642D01*
X118380476Y-52257023D01*
X118761428Y-52257023D01*
X118856666Y-52304642D01*
X118904285Y-52399880D01*
X118904285Y-52590357D01*
X118856666Y-52685595D01*
X118761428Y-52733214D01*
X118666190Y-52733214D01*
X118570952Y-52257023D01*
X118237619Y-53304642D02*
X118285238Y-53209404D01*
X118380476Y-53161785D01*
X119237619Y-53161785D01*
X118237619Y-53828452D02*
X118285238Y-53733214D01*
X118332857Y-53685595D01*
X118428095Y-53637976D01*
X118713809Y-53637976D01*
X118809047Y-53685595D01*
X118856666Y-53733214D01*
X118904285Y-53828452D01*
X118904285Y-53971309D01*
X118856666Y-54066547D01*
X118809047Y-54114166D01*
X118713809Y-54161785D01*
X118428095Y-54161785D01*
X118332857Y-54114166D01*
X118285238Y-54066547D01*
X118237619Y-53971309D01*
X118237619Y-53828452D01*
X118904285Y-54590357D02*
X117904285Y-54590357D01*
X118856666Y-54590357D02*
X118904285Y-54685595D01*
X118904285Y-54876071D01*
X118856666Y-54971309D01*
X118809047Y-55018928D01*
X118713809Y-55066547D01*
X118428095Y-55066547D01*
X118332857Y-55018928D01*
X118285238Y-54971309D01*
X118237619Y-54876071D01*
X118237619Y-54685595D01*
X118285238Y-54590357D01*
X118237619Y-55495119D02*
X118904285Y-55495119D01*
X118809047Y-55495119D02*
X118856666Y-55542738D01*
X118904285Y-55637976D01*
X118904285Y-55780833D01*
X118856666Y-55876071D01*
X118761428Y-55923690D01*
X118237619Y-55923690D01*
X118761428Y-55923690D02*
X118856666Y-55971309D01*
X118904285Y-56066547D01*
X118904285Y-56209404D01*
X118856666Y-56304642D01*
X118761428Y-56352261D01*
X118237619Y-56352261D01*
X118285238Y-57209404D02*
X118237619Y-57114166D01*
X118237619Y-56923690D01*
X118285238Y-56828452D01*
X118380476Y-56780833D01*
X118761428Y-56780833D01*
X118856666Y-56828452D01*
X118904285Y-56923690D01*
X118904285Y-57114166D01*
X118856666Y-57209404D01*
X118761428Y-57257023D01*
X118666190Y-57257023D01*
X118570952Y-56780833D01*
X118904285Y-57685595D02*
X118237619Y-57685595D01*
X118809047Y-57685595D02*
X118856666Y-57733214D01*
X118904285Y-57828452D01*
X118904285Y-57971309D01*
X118856666Y-58066547D01*
X118761428Y-58114166D01*
X118237619Y-58114166D01*
X118904285Y-58447500D02*
X118904285Y-58828452D01*
X119237619Y-58590357D02*
X118380476Y-58590357D01*
X118285238Y-58637976D01*
X118237619Y-58733214D01*
X118237619Y-58828452D01*
X118761428Y-60257023D02*
X118713809Y-60399880D01*
X118666190Y-60447500D01*
X118570952Y-60495119D01*
X118428095Y-60495119D01*
X118332857Y-60447500D01*
X118285238Y-60399880D01*
X118237619Y-60304642D01*
X118237619Y-59923690D01*
X119237619Y-59923690D01*
X119237619Y-60257023D01*
X119190000Y-60352261D01*
X119142380Y-60399880D01*
X119047142Y-60447500D01*
X118951904Y-60447500D01*
X118856666Y-60399880D01*
X118809047Y-60352261D01*
X118761428Y-60257023D01*
X118761428Y-59923690D01*
X118237619Y-61066547D02*
X118285238Y-60971309D01*
X118332857Y-60923690D01*
X118428095Y-60876071D01*
X118713809Y-60876071D01*
X118809047Y-60923690D01*
X118856666Y-60971309D01*
X118904285Y-61066547D01*
X118904285Y-61209404D01*
X118856666Y-61304642D01*
X118809047Y-61352261D01*
X118713809Y-61399880D01*
X118428095Y-61399880D01*
X118332857Y-61352261D01*
X118285238Y-61304642D01*
X118237619Y-61209404D01*
X118237619Y-61066547D01*
X118237619Y-62257023D02*
X118761428Y-62257023D01*
X118856666Y-62209404D01*
X118904285Y-62114166D01*
X118904285Y-61923690D01*
X118856666Y-61828452D01*
X118285238Y-62257023D02*
X118237619Y-62161785D01*
X118237619Y-61923690D01*
X118285238Y-61828452D01*
X118380476Y-61780833D01*
X118475714Y-61780833D01*
X118570952Y-61828452D01*
X118618571Y-61923690D01*
X118618571Y-62161785D01*
X118666190Y-62257023D01*
X118237619Y-62733214D02*
X118904285Y-62733214D01*
X118713809Y-62733214D02*
X118809047Y-62780833D01*
X118856666Y-62828452D01*
X118904285Y-62923690D01*
X118904285Y-63018928D01*
X118237619Y-63780833D02*
X119237619Y-63780833D01*
X118285238Y-63780833D02*
X118237619Y-63685595D01*
X118237619Y-63495119D01*
X118285238Y-63399880D01*
X118332857Y-63352261D01*
X118428095Y-63304642D01*
X118713809Y-63304642D01*
X118809047Y-63352261D01*
X118856666Y-63399880D01*
X118904285Y-63495119D01*
X118904285Y-63685595D01*
X118856666Y-63780833D01*
X119142380Y-64971309D02*
X119190000Y-65018928D01*
X119237619Y-65114166D01*
X119237619Y-65352261D01*
X119190000Y-65447500D01*
X119142380Y-65495119D01*
X119047142Y-65542738D01*
X118951904Y-65542738D01*
X118809047Y-65495119D01*
X118237619Y-64923690D01*
X118237619Y-65542738D01*
X118332857Y-65971309D02*
X118285238Y-66018928D01*
X118237619Y-65971309D01*
X118285238Y-65923690D01*
X118332857Y-65971309D01*
X118237619Y-65971309D01*
X118237619Y-66971309D02*
X118237619Y-66399880D01*
X118237619Y-66685595D02*
X119237619Y-66685595D01*
X119094761Y-66590357D01*
X118999523Y-66495119D01*
X118951904Y-66399880D01*
X116627619Y-49685595D02*
X117627619Y-49685595D01*
X116913333Y-50018928D01*
X117627619Y-50352261D01*
X116627619Y-50352261D01*
X116627619Y-51257023D02*
X117151428Y-51257023D01*
X117246666Y-51209404D01*
X117294285Y-51114166D01*
X117294285Y-50923690D01*
X117246666Y-50828452D01*
X116675238Y-51257023D02*
X116627619Y-51161785D01*
X116627619Y-50923690D01*
X116675238Y-50828452D01*
X116770476Y-50780833D01*
X116865714Y-50780833D01*
X116960952Y-50828452D01*
X117008571Y-50923690D01*
X117008571Y-51161785D01*
X117056190Y-51257023D01*
X116627619Y-51733214D02*
X117294285Y-51733214D01*
X117103809Y-51733214D02*
X117199047Y-51780833D01*
X117246666Y-51828452D01*
X117294285Y-51923690D01*
X117294285Y-52018928D01*
X116675238Y-52780833D02*
X116627619Y-52685595D01*
X116627619Y-52495119D01*
X116675238Y-52399880D01*
X116722857Y-52352261D01*
X116818095Y-52304642D01*
X117103809Y-52304642D01*
X117199047Y-52352261D01*
X117246666Y-52399880D01*
X117294285Y-52495119D01*
X117294285Y-52685595D01*
X117246666Y-52780833D01*
X116627619Y-53209404D02*
X117627619Y-53209404D01*
X116627619Y-53637976D02*
X117151428Y-53637976D01*
X117246666Y-53590357D01*
X117294285Y-53495119D01*
X117294285Y-53352261D01*
X117246666Y-53257023D01*
X117199047Y-53209404D01*
X117532380Y-54828452D02*
X117580000Y-54876071D01*
X117627619Y-54971309D01*
X117627619Y-55209404D01*
X117580000Y-55304642D01*
X117532380Y-55352261D01*
X117437142Y-55399880D01*
X117341904Y-55399880D01*
X117199047Y-55352261D01*
X116627619Y-54780833D01*
X116627619Y-55399880D01*
X117627619Y-56018928D02*
X117627619Y-56114166D01*
X117580000Y-56209404D01*
X117532380Y-56257023D01*
X117437142Y-56304642D01*
X117246666Y-56352261D01*
X117008571Y-56352261D01*
X116818095Y-56304642D01*
X116722857Y-56257023D01*
X116675238Y-56209404D01*
X116627619Y-56114166D01*
X116627619Y-56018928D01*
X116675238Y-55923690D01*
X116722857Y-55876071D01*
X116818095Y-55828452D01*
X117008571Y-55780833D01*
X117246666Y-55780833D01*
X117437142Y-55828452D01*
X117532380Y-55876071D01*
X117580000Y-55923690D01*
X117627619Y-56018928D01*
X117532380Y-56733214D02*
X117580000Y-56780833D01*
X117627619Y-56876071D01*
X117627619Y-57114166D01*
X117580000Y-57209404D01*
X117532380Y-57257023D01*
X117437142Y-57304642D01*
X117341904Y-57304642D01*
X117199047Y-57257023D01*
X116627619Y-56685595D01*
X116627619Y-57304642D01*
X117532380Y-57685595D02*
X117580000Y-57733214D01*
X117627619Y-57828452D01*
X117627619Y-58066547D01*
X117580000Y-58161785D01*
X117532380Y-58209404D01*
X117437142Y-58257023D01*
X117341904Y-58257023D01*
X117199047Y-58209404D01*
X116627619Y-57637976D01*
X116627619Y-58257023D01*
X120265238Y-67806666D02*
X120217619Y-67949523D01*
X120217619Y-68187619D01*
X120265238Y-68282857D01*
X120312857Y-68330476D01*
X120408095Y-68378095D01*
X120503333Y-68378095D01*
X120598571Y-68330476D01*
X120646190Y-68282857D01*
X120693809Y-68187619D01*
X120741428Y-67997142D01*
X120789047Y-67901904D01*
X120836666Y-67854285D01*
X120931904Y-67806666D01*
X121027142Y-67806666D01*
X121122380Y-67854285D01*
X121170000Y-67901904D01*
X121217619Y-67997142D01*
X121217619Y-68235238D01*
X121170000Y-68378095D01*
X121265238Y-69520952D02*
X119979523Y-68663809D01*
X120217619Y-69854285D02*
X121217619Y-69854285D01*
X120217619Y-70425714D01*
X121217619Y-70425714D01*
X66131904Y-29842380D02*
X65798571Y-29366190D01*
X65560476Y-29842380D02*
X65560476Y-28842380D01*
X65941428Y-28842380D01*
X66036666Y-28890000D01*
X66084285Y-28937619D01*
X66131904Y-29032857D01*
X66131904Y-29175714D01*
X66084285Y-29270952D01*
X66036666Y-29318571D01*
X65941428Y-29366190D01*
X65560476Y-29366190D01*
X66941428Y-29794761D02*
X66846190Y-29842380D01*
X66655714Y-29842380D01*
X66560476Y-29794761D01*
X66512857Y-29699523D01*
X66512857Y-29318571D01*
X66560476Y-29223333D01*
X66655714Y-29175714D01*
X66846190Y-29175714D01*
X66941428Y-29223333D01*
X66989047Y-29318571D01*
X66989047Y-29413809D01*
X66512857Y-29509047D01*
X67370000Y-29794761D02*
X67465238Y-29842380D01*
X67655714Y-29842380D01*
X67750952Y-29794761D01*
X67798571Y-29699523D01*
X67798571Y-29651904D01*
X67750952Y-29556666D01*
X67655714Y-29509047D01*
X67512857Y-29509047D01*
X67417619Y-29461428D01*
X67370000Y-29366190D01*
X67370000Y-29318571D01*
X67417619Y-29223333D01*
X67512857Y-29175714D01*
X67655714Y-29175714D01*
X67750952Y-29223333D01*
X68608095Y-29794761D02*
X68512857Y-29842380D01*
X68322380Y-29842380D01*
X68227142Y-29794761D01*
X68179523Y-29699523D01*
X68179523Y-29318571D01*
X68227142Y-29223333D01*
X68322380Y-29175714D01*
X68512857Y-29175714D01*
X68608095Y-29223333D01*
X68655714Y-29318571D01*
X68655714Y-29413809D01*
X68179523Y-29509047D01*
X68941428Y-29175714D02*
X69322380Y-29175714D01*
X69084285Y-28842380D02*
X69084285Y-29699523D01*
X69131904Y-29794761D01*
X69227142Y-29842380D01*
X69322380Y-29842380D01*
X87107619Y-30016666D02*
X87583809Y-30016666D01*
X87012380Y-30302380D02*
X87345714Y-29302380D01*
X87679047Y-30302380D01*
X88440952Y-30254761D02*
X88345714Y-30302380D01*
X88155238Y-30302380D01*
X88060000Y-30254761D01*
X88012380Y-30207142D01*
X87964761Y-30111904D01*
X87964761Y-29826190D01*
X88012380Y-29730952D01*
X88060000Y-29683333D01*
X88155238Y-29635714D01*
X88345714Y-29635714D01*
X88440952Y-29683333D01*
X88726666Y-29635714D02*
X89107619Y-29635714D01*
X88869523Y-29302380D02*
X88869523Y-30159523D01*
X88917142Y-30254761D01*
X89012380Y-30302380D01*
X89107619Y-30302380D01*
X54443809Y-28842380D02*
X55015238Y-28842380D01*
X54729523Y-29842380D02*
X54729523Y-28842380D01*
X55348571Y-29842380D02*
X55348571Y-29175714D01*
X55348571Y-29366190D02*
X55396190Y-29270952D01*
X55443809Y-29223333D01*
X55539047Y-29175714D01*
X55634285Y-29175714D01*
X55967619Y-29842380D02*
X55967619Y-29175714D01*
X55967619Y-28842380D02*
X55920000Y-28890000D01*
X55967619Y-28937619D01*
X56015238Y-28890000D01*
X55967619Y-28842380D01*
X55967619Y-28937619D01*
X56872380Y-29175714D02*
X56872380Y-29985238D01*
X56824761Y-30080476D01*
X56777142Y-30128095D01*
X56681904Y-30175714D01*
X56539047Y-30175714D01*
X56443809Y-30128095D01*
X56872380Y-29794761D02*
X56777142Y-29842380D01*
X56586666Y-29842380D01*
X56491428Y-29794761D01*
X56443809Y-29747142D01*
X56396190Y-29651904D01*
X56396190Y-29366190D01*
X56443809Y-29270952D01*
X56491428Y-29223333D01*
X56586666Y-29175714D01*
X56777142Y-29175714D01*
X56872380Y-29223333D01*
X57777142Y-29175714D02*
X57777142Y-29985238D01*
X57729523Y-30080476D01*
X57681904Y-30128095D01*
X57586666Y-30175714D01*
X57443809Y-30175714D01*
X57348571Y-30128095D01*
X57777142Y-29794761D02*
X57681904Y-29842380D01*
X57491428Y-29842380D01*
X57396190Y-29794761D01*
X57348571Y-29747142D01*
X57300952Y-29651904D01*
X57300952Y-29366190D01*
X57348571Y-29270952D01*
X57396190Y-29223333D01*
X57491428Y-29175714D01*
X57681904Y-29175714D01*
X57777142Y-29223333D01*
X58634285Y-29794761D02*
X58539047Y-29842380D01*
X58348571Y-29842380D01*
X58253333Y-29794761D01*
X58205714Y-29699523D01*
X58205714Y-29318571D01*
X58253333Y-29223333D01*
X58348571Y-29175714D01*
X58539047Y-29175714D01*
X58634285Y-29223333D01*
X58681904Y-29318571D01*
X58681904Y-29413809D01*
X58205714Y-29509047D01*
X59110476Y-29842380D02*
X59110476Y-29175714D01*
X59110476Y-29366190D02*
X59158095Y-29270952D01*
X59205714Y-29223333D01*
X59300952Y-29175714D01*
X59396190Y-29175714D01*
X94033809Y-30302380D02*
X94033809Y-29302380D01*
X94414761Y-29302380D01*
X94510000Y-29350000D01*
X94557619Y-29397619D01*
X94605238Y-29492857D01*
X94605238Y-29635714D01*
X94557619Y-29730952D01*
X94510000Y-29778571D01*
X94414761Y-29826190D01*
X94033809Y-29826190D01*
X95176666Y-30302380D02*
X95081428Y-30254761D01*
X95033809Y-30207142D01*
X94986190Y-30111904D01*
X94986190Y-29826190D01*
X95033809Y-29730952D01*
X95081428Y-29683333D01*
X95176666Y-29635714D01*
X95319523Y-29635714D01*
X95414761Y-29683333D01*
X95462380Y-29730952D01*
X95510000Y-29826190D01*
X95510000Y-30111904D01*
X95462380Y-30207142D01*
X95414761Y-30254761D01*
X95319523Y-30302380D01*
X95176666Y-30302380D01*
X95843333Y-29635714D02*
X96033809Y-30302380D01*
X96224285Y-29826190D01*
X96414761Y-30302380D01*
X96605238Y-29635714D01*
X97367142Y-30254761D02*
X97271904Y-30302380D01*
X97081428Y-30302380D01*
X96986190Y-30254761D01*
X96938571Y-30159523D01*
X96938571Y-29778571D01*
X96986190Y-29683333D01*
X97081428Y-29635714D01*
X97271904Y-29635714D01*
X97367142Y-29683333D01*
X97414761Y-29778571D01*
X97414761Y-29873809D01*
X96938571Y-29969047D01*
X97843333Y-30302380D02*
X97843333Y-29635714D01*
X97843333Y-29826190D02*
X97890952Y-29730952D01*
X97938571Y-29683333D01*
X98033809Y-29635714D01*
X98129047Y-29635714D01*
X49616547Y-126316000D02*
X49464166Y-126239809D01*
X49235595Y-126239809D01*
X49007023Y-126316000D01*
X48854642Y-126468380D01*
X48778452Y-126620761D01*
X48702261Y-126925523D01*
X48702261Y-127154095D01*
X48778452Y-127458857D01*
X48854642Y-127611238D01*
X49007023Y-127763619D01*
X49235595Y-127839809D01*
X49387976Y-127839809D01*
X49616547Y-127763619D01*
X49692738Y-127687428D01*
X49692738Y-127154095D01*
X49387976Y-127154095D01*
X50378452Y-127839809D02*
X50378452Y-126239809D01*
X51292738Y-127839809D01*
X51292738Y-126239809D01*
X52054642Y-127839809D02*
X52054642Y-126239809D01*
X52435595Y-126239809D01*
X52664166Y-126316000D01*
X52816547Y-126468380D01*
X52892738Y-126620761D01*
X52968928Y-126925523D01*
X52968928Y-127154095D01*
X52892738Y-127458857D01*
X52816547Y-127611238D01*
X52664166Y-127763619D01*
X52435595Y-127839809D01*
X52054642Y-127839809D01*
X48702261Y-130339619D02*
X48930833Y-130415809D01*
X49311785Y-130415809D01*
X49464166Y-130339619D01*
X49540357Y-130263428D01*
X49616547Y-130111047D01*
X49616547Y-129958666D01*
X49540357Y-129806285D01*
X49464166Y-129730095D01*
X49311785Y-129653904D01*
X49007023Y-129577714D01*
X48854642Y-129501523D01*
X48778452Y-129425333D01*
X48702261Y-129272952D01*
X48702261Y-129120571D01*
X48778452Y-128968190D01*
X48854642Y-128892000D01*
X49007023Y-128815809D01*
X49387976Y-128815809D01*
X49616547Y-128892000D01*
X50302261Y-130415809D02*
X50302261Y-128815809D01*
X50683214Y-128815809D01*
X50911785Y-128892000D01*
X51064166Y-129044380D01*
X51140357Y-129196761D01*
X51216547Y-129501523D01*
X51216547Y-129730095D01*
X51140357Y-130034857D01*
X51064166Y-130187238D01*
X50911785Y-130339619D01*
X50683214Y-130415809D01*
X50302261Y-130415809D01*
X51826071Y-129958666D02*
X52587976Y-129958666D01*
X51673690Y-130415809D02*
X52207023Y-128815809D01*
X52740357Y-130415809D01*
X48702261Y-132915619D02*
X48930833Y-132991809D01*
X49311785Y-132991809D01*
X49464166Y-132915619D01*
X49540357Y-132839428D01*
X49616547Y-132687047D01*
X49616547Y-132534666D01*
X49540357Y-132382285D01*
X49464166Y-132306095D01*
X49311785Y-132229904D01*
X49007023Y-132153714D01*
X48854642Y-132077523D01*
X48778452Y-132001333D01*
X48702261Y-131848952D01*
X48702261Y-131696571D01*
X48778452Y-131544190D01*
X48854642Y-131468000D01*
X49007023Y-131391809D01*
X49387976Y-131391809D01*
X49616547Y-131468000D01*
X51216547Y-132839428D02*
X51140357Y-132915619D01*
X50911785Y-132991809D01*
X50759404Y-132991809D01*
X50530833Y-132915619D01*
X50378452Y-132763238D01*
X50302261Y-132610857D01*
X50226071Y-132306095D01*
X50226071Y-132077523D01*
X50302261Y-131772761D01*
X50378452Y-131620380D01*
X50530833Y-131468000D01*
X50759404Y-131391809D01*
X50911785Y-131391809D01*
X51140357Y-131468000D01*
X51216547Y-131544190D01*
X52664166Y-132991809D02*
X51902261Y-132991809D01*
X51902261Y-131391809D01*
X49692738Y-135567809D02*
X49159404Y-134805904D01*
X48778452Y-135567809D02*
X48778452Y-133967809D01*
X49387976Y-133967809D01*
X49540357Y-134044000D01*
X49616547Y-134120190D01*
X49692738Y-134272571D01*
X49692738Y-134501142D01*
X49616547Y-134653523D01*
X49540357Y-134729714D01*
X49387976Y-134805904D01*
X48778452Y-134805904D01*
X50378452Y-134729714D02*
X50911785Y-134729714D01*
X51140357Y-135567809D02*
X50378452Y-135567809D01*
X50378452Y-133967809D01*
X51140357Y-133967809D01*
X51749880Y-135491619D02*
X51978452Y-135567809D01*
X52359404Y-135567809D01*
X52511785Y-135491619D01*
X52587976Y-135415428D01*
X52664166Y-135263047D01*
X52664166Y-135110666D01*
X52587976Y-134958285D01*
X52511785Y-134882095D01*
X52359404Y-134805904D01*
X52054642Y-134729714D01*
X51902261Y-134653523D01*
X51826071Y-134577333D01*
X51749880Y-134424952D01*
X51749880Y-134272571D01*
X51826071Y-134120190D01*
X51902261Y-134044000D01*
X52054642Y-133967809D01*
X52435595Y-133967809D01*
X52664166Y-134044000D01*
X53349880Y-134729714D02*
X53883214Y-134729714D01*
X54111785Y-135567809D02*
X53349880Y-135567809D01*
X53349880Y-133967809D01*
X54111785Y-133967809D01*
X54568928Y-133967809D02*
X55483214Y-133967809D01*
X55026071Y-135567809D02*
X55026071Y-133967809D01*
X49416547Y-96634000D02*
X49264166Y-96557809D01*
X49035595Y-96557809D01*
X48807023Y-96634000D01*
X48654642Y-96786380D01*
X48578452Y-96938761D01*
X48502261Y-97243523D01*
X48502261Y-97472095D01*
X48578452Y-97776857D01*
X48654642Y-97929238D01*
X48807023Y-98081619D01*
X49035595Y-98157809D01*
X49187976Y-98157809D01*
X49416547Y-98081619D01*
X49492738Y-98005428D01*
X49492738Y-97472095D01*
X49187976Y-97472095D01*
X50178452Y-98157809D02*
X50178452Y-96557809D01*
X51092738Y-98157809D01*
X51092738Y-96557809D01*
X51854642Y-98157809D02*
X51854642Y-96557809D01*
X52235595Y-96557809D01*
X52464166Y-96634000D01*
X52616547Y-96786380D01*
X52692738Y-96938761D01*
X52768928Y-97243523D01*
X52768928Y-97472095D01*
X52692738Y-97776857D01*
X52616547Y-97929238D01*
X52464166Y-98081619D01*
X52235595Y-98157809D01*
X51854642Y-98157809D01*
X49492738Y-100581428D02*
X49416547Y-100657619D01*
X49187976Y-100733809D01*
X49035595Y-100733809D01*
X48807023Y-100657619D01*
X48654642Y-100505238D01*
X48578452Y-100352857D01*
X48502261Y-100048095D01*
X48502261Y-99819523D01*
X48578452Y-99514761D01*
X48654642Y-99362380D01*
X48807023Y-99210000D01*
X49035595Y-99133809D01*
X49187976Y-99133809D01*
X49416547Y-99210000D01*
X49492738Y-99286190D01*
X50102261Y-100657619D02*
X50330833Y-100733809D01*
X50711785Y-100733809D01*
X50864166Y-100657619D01*
X50940357Y-100581428D01*
X51016547Y-100429047D01*
X51016547Y-100276666D01*
X50940357Y-100124285D01*
X50864166Y-100048095D01*
X50711785Y-99971904D01*
X50407023Y-99895714D01*
X50254642Y-99819523D01*
X50178452Y-99743333D01*
X50102261Y-99590952D01*
X50102261Y-99438571D01*
X50178452Y-99286190D01*
X50254642Y-99210000D01*
X50407023Y-99133809D01*
X50787976Y-99133809D01*
X51016547Y-99210000D01*
X48578452Y-103309809D02*
X48578452Y-101709809D01*
X49111785Y-102852666D01*
X49645119Y-101709809D01*
X49645119Y-103309809D01*
X50711785Y-101709809D02*
X51016547Y-101709809D01*
X51168928Y-101786000D01*
X51321309Y-101938380D01*
X51397500Y-102243142D01*
X51397500Y-102776476D01*
X51321309Y-103081238D01*
X51168928Y-103233619D01*
X51016547Y-103309809D01*
X50711785Y-103309809D01*
X50559404Y-103233619D01*
X50407023Y-103081238D01*
X50330833Y-102776476D01*
X50330833Y-102243142D01*
X50407023Y-101938380D01*
X50559404Y-101786000D01*
X50711785Y-101709809D01*
X52007023Y-103233619D02*
X52235595Y-103309809D01*
X52616547Y-103309809D01*
X52768928Y-103233619D01*
X52845119Y-103157428D01*
X52921309Y-103005047D01*
X52921309Y-102852666D01*
X52845119Y-102700285D01*
X52768928Y-102624095D01*
X52616547Y-102547904D01*
X52311785Y-102471714D01*
X52159404Y-102395523D01*
X52083214Y-102319333D01*
X52007023Y-102166952D01*
X52007023Y-102014571D01*
X52083214Y-101862190D01*
X52159404Y-101786000D01*
X52311785Y-101709809D01*
X52692738Y-101709809D01*
X52921309Y-101786000D01*
X53607023Y-103309809D02*
X53607023Y-101709809D01*
X48578452Y-105885809D02*
X48578452Y-104285809D01*
X49111785Y-105428666D01*
X49645119Y-104285809D01*
X49645119Y-105885809D01*
X50407023Y-105885809D02*
X50407023Y-104285809D01*
X51092738Y-105809619D02*
X51321309Y-105885809D01*
X51702261Y-105885809D01*
X51854642Y-105809619D01*
X51930833Y-105733428D01*
X52007023Y-105581047D01*
X52007023Y-105428666D01*
X51930833Y-105276285D01*
X51854642Y-105200095D01*
X51702261Y-105123904D01*
X51397500Y-105047714D01*
X51245119Y-104971523D01*
X51168928Y-104895333D01*
X51092738Y-104742952D01*
X51092738Y-104590571D01*
X51168928Y-104438190D01*
X51245119Y-104362000D01*
X51397500Y-104285809D01*
X51778452Y-104285809D01*
X52007023Y-104362000D01*
X52997500Y-104285809D02*
X53302261Y-104285809D01*
X53454642Y-104362000D01*
X53607023Y-104514380D01*
X53683214Y-104819142D01*
X53683214Y-105352476D01*
X53607023Y-105657238D01*
X53454642Y-105809619D01*
X53302261Y-105885809D01*
X52997500Y-105885809D01*
X52845119Y-105809619D01*
X52692738Y-105657238D01*
X52616547Y-105352476D01*
X52616547Y-104819142D01*
X52692738Y-104514380D01*
X52845119Y-104362000D01*
X52997500Y-104285809D01*
X49492738Y-108309428D02*
X49416547Y-108385619D01*
X49187976Y-108461809D01*
X49035595Y-108461809D01*
X48807023Y-108385619D01*
X48654642Y-108233238D01*
X48578452Y-108080857D01*
X48502261Y-107776095D01*
X48502261Y-107547523D01*
X48578452Y-107242761D01*
X48654642Y-107090380D01*
X48807023Y-106938000D01*
X49035595Y-106861809D01*
X49187976Y-106861809D01*
X49416547Y-106938000D01*
X49492738Y-107014190D01*
X50940357Y-108461809D02*
X50178452Y-108461809D01*
X50178452Y-106861809D01*
X51473690Y-108461809D02*
X51473690Y-106861809D01*
X52387976Y-108461809D02*
X51702261Y-107547523D01*
X52387976Y-106861809D02*
X51473690Y-107776095D01*
X48578452Y-111037809D02*
X48578452Y-109437809D01*
X49187976Y-109437809D01*
X49340357Y-109514000D01*
X49416547Y-109590190D01*
X49492738Y-109742571D01*
X49492738Y-109971142D01*
X49416547Y-110123523D01*
X49340357Y-110199714D01*
X49187976Y-110275904D01*
X48578452Y-110275904D01*
X50178452Y-111037809D02*
X50178452Y-109437809D01*
X50559404Y-109437809D01*
X50787976Y-109514000D01*
X50940357Y-109666380D01*
X51016547Y-109818761D01*
X51092738Y-110123523D01*
X51092738Y-110352095D01*
X51016547Y-110656857D01*
X50940357Y-110809238D01*
X50787976Y-110961619D01*
X50559404Y-111037809D01*
X50178452Y-111037809D01*
X51626071Y-109437809D02*
X52007023Y-111037809D01*
X52311785Y-109894952D01*
X52616547Y-111037809D01*
X52997500Y-109437809D01*
X53607023Y-111037809D02*
X53607023Y-109437809D01*
X54521309Y-111037809D01*
X54521309Y-109437809D01*
X49492738Y-113613809D02*
X48959404Y-112851904D01*
X48578452Y-113613809D02*
X48578452Y-112013809D01*
X49187976Y-112013809D01*
X49340357Y-112090000D01*
X49416547Y-112166190D01*
X49492738Y-112318571D01*
X49492738Y-112547142D01*
X49416547Y-112699523D01*
X49340357Y-112775714D01*
X49187976Y-112851904D01*
X48578452Y-112851904D01*
X50178452Y-112775714D02*
X50711785Y-112775714D01*
X50940357Y-113613809D02*
X50178452Y-113613809D01*
X50178452Y-112013809D01*
X50940357Y-112013809D01*
X51549880Y-113537619D02*
X51778452Y-113613809D01*
X52159404Y-113613809D01*
X52311785Y-113537619D01*
X52387976Y-113461428D01*
X52464166Y-113309047D01*
X52464166Y-113156666D01*
X52387976Y-113004285D01*
X52311785Y-112928095D01*
X52159404Y-112851904D01*
X51854642Y-112775714D01*
X51702261Y-112699523D01*
X51626071Y-112623333D01*
X51549880Y-112470952D01*
X51549880Y-112318571D01*
X51626071Y-112166190D01*
X51702261Y-112090000D01*
X51854642Y-112013809D01*
X52235595Y-112013809D01*
X52464166Y-112090000D01*
X53149880Y-112775714D02*
X53683214Y-112775714D01*
X53911785Y-113613809D02*
X53149880Y-113613809D01*
X53149880Y-112013809D01*
X53911785Y-112013809D01*
X54368928Y-112013809D02*
X55283214Y-112013809D01*
X54826071Y-113613809D02*
X54826071Y-112013809D01*
X48578452Y-116189809D02*
X48578452Y-114589809D01*
X48959404Y-114589809D01*
X49187976Y-114666000D01*
X49340357Y-114818380D01*
X49416547Y-114970761D01*
X49492738Y-115275523D01*
X49492738Y-115504095D01*
X49416547Y-115808857D01*
X49340357Y-115961238D01*
X49187976Y-116113619D01*
X48959404Y-116189809D01*
X48578452Y-116189809D01*
X51092738Y-116189809D02*
X50559404Y-115427904D01*
X50178452Y-116189809D02*
X50178452Y-114589809D01*
X50787976Y-114589809D01*
X50940357Y-114666000D01*
X51016547Y-114742190D01*
X51092738Y-114894571D01*
X51092738Y-115123142D01*
X51016547Y-115275523D01*
X50940357Y-115351714D01*
X50787976Y-115427904D01*
X50178452Y-115427904D01*
X51778452Y-116189809D02*
X51778452Y-114589809D01*
X52159404Y-114589809D01*
X52387976Y-114666000D01*
X52540357Y-114818380D01*
X52616547Y-114970761D01*
X52692738Y-115275523D01*
X52692738Y-115504095D01*
X52616547Y-115808857D01*
X52540357Y-115961238D01*
X52387976Y-116113619D01*
X52159404Y-116189809D01*
X51778452Y-116189809D01*
X53683214Y-115427904D02*
X53683214Y-116189809D01*
X53149880Y-114589809D02*
X53683214Y-115427904D01*
X54216547Y-114589809D01*
%TO.C,D5*%
X89914436Y-137833370D02*
X89914436Y-136833370D01*
X90152532Y-136833370D01*
X90295389Y-136880990D01*
X90390627Y-136976228D01*
X90438246Y-137071466D01*
X90485865Y-137261942D01*
X90485865Y-137404799D01*
X90438246Y-137595275D01*
X90390627Y-137690513D01*
X90295389Y-137785751D01*
X90152532Y-137833370D01*
X89914436Y-137833370D01*
X91390627Y-136833370D02*
X90914436Y-136833370D01*
X90866817Y-137309561D01*
X90914436Y-137261942D01*
X91009674Y-137214323D01*
X91247770Y-137214323D01*
X91343008Y-137261942D01*
X91390627Y-137309561D01*
X91438246Y-137404799D01*
X91438246Y-137642894D01*
X91390627Y-137738132D01*
X91343008Y-137785751D01*
X91247770Y-137833370D01*
X91009674Y-137833370D01*
X90914436Y-137785751D01*
X90866817Y-137738132D01*
%TO.C,R25*%
X102417142Y-128245714D02*
X102083809Y-127769524D01*
X101845714Y-128245714D02*
X101845714Y-127245714D01*
X102226666Y-127245714D01*
X102321904Y-127293334D01*
X102369523Y-127340953D01*
X102417142Y-127436191D01*
X102417142Y-127579048D01*
X102369523Y-127674286D01*
X102321904Y-127721905D01*
X102226666Y-127769524D01*
X101845714Y-127769524D01*
X102798095Y-127340953D02*
X102845714Y-127293334D01*
X102940952Y-127245714D01*
X103179047Y-127245714D01*
X103274285Y-127293334D01*
X103321904Y-127340953D01*
X103369523Y-127436191D01*
X103369523Y-127531429D01*
X103321904Y-127674286D01*
X102750476Y-128245714D01*
X103369523Y-128245714D01*
X104274285Y-127245714D02*
X103798095Y-127245714D01*
X103750476Y-127721905D01*
X103798095Y-127674286D01*
X103893333Y-127626667D01*
X104131428Y-127626667D01*
X104226666Y-127674286D01*
X104274285Y-127721905D01*
X104321904Y-127817143D01*
X104321904Y-128055238D01*
X104274285Y-128150476D01*
X104226666Y-128198095D01*
X104131428Y-128245714D01*
X103893333Y-128245714D01*
X103798095Y-128198095D01*
X103750476Y-128150476D01*
%TO.C,R3*%
X99183333Y-115752380D02*
X98850000Y-115276190D01*
X98611904Y-115752380D02*
X98611904Y-114752380D01*
X98992857Y-114752380D01*
X99088095Y-114800000D01*
X99135714Y-114847619D01*
X99183333Y-114942857D01*
X99183333Y-115085714D01*
X99135714Y-115180952D01*
X99088095Y-115228571D01*
X98992857Y-115276190D01*
X98611904Y-115276190D01*
X99516666Y-114752380D02*
X100135714Y-114752380D01*
X99802380Y-115133333D01*
X99945238Y-115133333D01*
X100040476Y-115180952D01*
X100088095Y-115228571D01*
X100135714Y-115323809D01*
X100135714Y-115561904D01*
X100088095Y-115657142D01*
X100040476Y-115704761D01*
X99945238Y-115752380D01*
X99659523Y-115752380D01*
X99564285Y-115704761D01*
X99516666Y-115657142D01*
%TO.C,C14*%
X102647142Y-101997142D02*
X102599523Y-102044761D01*
X102456666Y-102092380D01*
X102361428Y-102092380D01*
X102218571Y-102044761D01*
X102123333Y-101949523D01*
X102075714Y-101854285D01*
X102028095Y-101663809D01*
X102028095Y-101520952D01*
X102075714Y-101330476D01*
X102123333Y-101235238D01*
X102218571Y-101140000D01*
X102361428Y-101092380D01*
X102456666Y-101092380D01*
X102599523Y-101140000D01*
X102647142Y-101187619D01*
X103599523Y-102092380D02*
X103028095Y-102092380D01*
X103313809Y-102092380D02*
X103313809Y-101092380D01*
X103218571Y-101235238D01*
X103123333Y-101330476D01*
X103028095Y-101378095D01*
X104456666Y-101425714D02*
X104456666Y-102092380D01*
X104218571Y-101044761D02*
X103980476Y-101759047D01*
X104599523Y-101759047D01*
%TO.C,C5*%
X98570833Y-112307142D02*
X98523214Y-112354761D01*
X98380357Y-112402380D01*
X98285119Y-112402380D01*
X98142261Y-112354761D01*
X98047023Y-112259523D01*
X97999404Y-112164285D01*
X97951785Y-111973809D01*
X97951785Y-111830952D01*
X97999404Y-111640476D01*
X98047023Y-111545238D01*
X98142261Y-111450000D01*
X98285119Y-111402380D01*
X98380357Y-111402380D01*
X98523214Y-111450000D01*
X98570833Y-111497619D01*
X99475595Y-111402380D02*
X98999404Y-111402380D01*
X98951785Y-111878571D01*
X98999404Y-111830952D01*
X99094642Y-111783333D01*
X99332738Y-111783333D01*
X99427976Y-111830952D01*
X99475595Y-111878571D01*
X99523214Y-111973809D01*
X99523214Y-112211904D01*
X99475595Y-112307142D01*
X99427976Y-112354761D01*
X99332738Y-112402380D01*
X99094642Y-112402380D01*
X98999404Y-112354761D01*
X98951785Y-112307142D01*
%TO.C,D1*%
X82305662Y-135427616D02*
X82305662Y-134427616D01*
X82543758Y-134427616D01*
X82686615Y-134475236D01*
X82781853Y-134570474D01*
X82829472Y-134665712D01*
X82877091Y-134856188D01*
X82877091Y-134999045D01*
X82829472Y-135189521D01*
X82781853Y-135284759D01*
X82686615Y-135379997D01*
X82543758Y-135427616D01*
X82305662Y-135427616D01*
X83829472Y-135427616D02*
X83258043Y-135427616D01*
X83543758Y-135427616D02*
X83543758Y-134427616D01*
X83448519Y-134570474D01*
X83353281Y-134665712D01*
X83258043Y-134713331D01*
%TO.C,C12*%
X102659642Y-99577142D02*
X102612023Y-99624761D01*
X102469166Y-99672380D01*
X102373928Y-99672380D01*
X102231071Y-99624761D01*
X102135833Y-99529523D01*
X102088214Y-99434285D01*
X102040595Y-99243809D01*
X102040595Y-99100952D01*
X102088214Y-98910476D01*
X102135833Y-98815238D01*
X102231071Y-98720000D01*
X102373928Y-98672380D01*
X102469166Y-98672380D01*
X102612023Y-98720000D01*
X102659642Y-98767619D01*
X103612023Y-99672380D02*
X103040595Y-99672380D01*
X103326309Y-99672380D02*
X103326309Y-98672380D01*
X103231071Y-98815238D01*
X103135833Y-98910476D01*
X103040595Y-98958095D01*
X103992976Y-98767619D02*
X104040595Y-98720000D01*
X104135833Y-98672380D01*
X104373928Y-98672380D01*
X104469166Y-98720000D01*
X104516785Y-98767619D01*
X104564404Y-98862857D01*
X104564404Y-98958095D01*
X104516785Y-99100952D01*
X103945357Y-99672380D01*
X104564404Y-99672380D01*
%TO.C,J2*%
X46086666Y-123572380D02*
X46086666Y-124286666D01*
X46039047Y-124429523D01*
X45943809Y-124524761D01*
X45800952Y-124572380D01*
X45705714Y-124572380D01*
X46515238Y-123667619D02*
X46562857Y-123620000D01*
X46658095Y-123572380D01*
X46896190Y-123572380D01*
X46991428Y-123620000D01*
X47039047Y-123667619D01*
X47086666Y-123762857D01*
X47086666Y-123858095D01*
X47039047Y-124000952D01*
X46467619Y-124572380D01*
X47086666Y-124572380D01*
%TO.C,C8*%
X57083333Y-119217142D02*
X57035714Y-119264761D01*
X56892857Y-119312380D01*
X56797619Y-119312380D01*
X56654761Y-119264761D01*
X56559523Y-119169523D01*
X56511904Y-119074285D01*
X56464285Y-118883809D01*
X56464285Y-118740952D01*
X56511904Y-118550476D01*
X56559523Y-118455238D01*
X56654761Y-118360000D01*
X56797619Y-118312380D01*
X56892857Y-118312380D01*
X57035714Y-118360000D01*
X57083333Y-118407619D01*
X57654761Y-118740952D02*
X57559523Y-118693333D01*
X57511904Y-118645714D01*
X57464285Y-118550476D01*
X57464285Y-118502857D01*
X57511904Y-118407619D01*
X57559523Y-118360000D01*
X57654761Y-118312380D01*
X57845238Y-118312380D01*
X57940476Y-118360000D01*
X57988095Y-118407619D01*
X58035714Y-118502857D01*
X58035714Y-118550476D01*
X57988095Y-118645714D01*
X57940476Y-118693333D01*
X57845238Y-118740952D01*
X57654761Y-118740952D01*
X57559523Y-118788571D01*
X57511904Y-118836190D01*
X57464285Y-118931428D01*
X57464285Y-119121904D01*
X57511904Y-119217142D01*
X57559523Y-119264761D01*
X57654761Y-119312380D01*
X57845238Y-119312380D01*
X57940476Y-119264761D01*
X57988095Y-119217142D01*
X58035714Y-119121904D01*
X58035714Y-118931428D01*
X57988095Y-118836190D01*
X57940476Y-118788571D01*
X57845238Y-118740952D01*
%TO.C,R19*%
X75277142Y-37452380D02*
X74943809Y-36976190D01*
X74705714Y-37452380D02*
X74705714Y-36452380D01*
X75086666Y-36452380D01*
X75181904Y-36500000D01*
X75229523Y-36547619D01*
X75277142Y-36642857D01*
X75277142Y-36785714D01*
X75229523Y-36880952D01*
X75181904Y-36928571D01*
X75086666Y-36976190D01*
X74705714Y-36976190D01*
X76229523Y-37452380D02*
X75658095Y-37452380D01*
X75943809Y-37452380D02*
X75943809Y-36452380D01*
X75848571Y-36595238D01*
X75753333Y-36690476D01*
X75658095Y-36738095D01*
X76705714Y-37452380D02*
X76896190Y-37452380D01*
X76991428Y-37404761D01*
X77039047Y-37357142D01*
X77134285Y-37214285D01*
X77181904Y-37023809D01*
X77181904Y-36642857D01*
X77134285Y-36547619D01*
X77086666Y-36500000D01*
X76991428Y-36452380D01*
X76800952Y-36452380D01*
X76705714Y-36500000D01*
X76658095Y-36547619D01*
X76610476Y-36642857D01*
X76610476Y-36880952D01*
X76658095Y-36976190D01*
X76705714Y-37023809D01*
X76800952Y-37071428D01*
X76991428Y-37071428D01*
X77086666Y-37023809D01*
X77134285Y-36976190D01*
X77181904Y-36880952D01*
%TO.C,R27*%
X102417142Y-138715714D02*
X102083809Y-138239524D01*
X101845714Y-138715714D02*
X101845714Y-137715714D01*
X102226666Y-137715714D01*
X102321904Y-137763334D01*
X102369523Y-137810953D01*
X102417142Y-137906191D01*
X102417142Y-138049048D01*
X102369523Y-138144286D01*
X102321904Y-138191905D01*
X102226666Y-138239524D01*
X101845714Y-138239524D01*
X102798095Y-137810953D02*
X102845714Y-137763334D01*
X102940952Y-137715714D01*
X103179047Y-137715714D01*
X103274285Y-137763334D01*
X103321904Y-137810953D01*
X103369523Y-137906191D01*
X103369523Y-138001429D01*
X103321904Y-138144286D01*
X102750476Y-138715714D01*
X103369523Y-138715714D01*
X103702857Y-137715714D02*
X104369523Y-137715714D01*
X103940952Y-138715714D01*
%TO.C,R12*%
X77061559Y-99132380D02*
X76728226Y-98656190D01*
X76490131Y-99132380D02*
X76490131Y-98132380D01*
X76871083Y-98132380D01*
X76966321Y-98180000D01*
X77013940Y-98227619D01*
X77061559Y-98322857D01*
X77061559Y-98465714D01*
X77013940Y-98560952D01*
X76966321Y-98608571D01*
X76871083Y-98656190D01*
X76490131Y-98656190D01*
X78013940Y-99132380D02*
X77442512Y-99132380D01*
X77728226Y-99132380D02*
X77728226Y-98132380D01*
X77632988Y-98275238D01*
X77537750Y-98370476D01*
X77442512Y-98418095D01*
X78394893Y-98227619D02*
X78442512Y-98180000D01*
X78537750Y-98132380D01*
X78775845Y-98132380D01*
X78871083Y-98180000D01*
X78918702Y-98227619D01*
X78966321Y-98322857D01*
X78966321Y-98418095D01*
X78918702Y-98560952D01*
X78347274Y-99132380D01*
X78966321Y-99132380D01*
%TO.C,R4*%
X94493333Y-115742380D02*
X94160000Y-115266190D01*
X93921904Y-115742380D02*
X93921904Y-114742380D01*
X94302857Y-114742380D01*
X94398095Y-114790000D01*
X94445714Y-114837619D01*
X94493333Y-114932857D01*
X94493333Y-115075714D01*
X94445714Y-115170952D01*
X94398095Y-115218571D01*
X94302857Y-115266190D01*
X93921904Y-115266190D01*
X95350476Y-115075714D02*
X95350476Y-115742380D01*
X95112380Y-114694761D02*
X94874285Y-115409047D01*
X95493333Y-115409047D01*
%TO.C,C7*%
X54773333Y-119377142D02*
X54725714Y-119424761D01*
X54582857Y-119472380D01*
X54487619Y-119472380D01*
X54344761Y-119424761D01*
X54249523Y-119329523D01*
X54201904Y-119234285D01*
X54154285Y-119043809D01*
X54154285Y-118900952D01*
X54201904Y-118710476D01*
X54249523Y-118615238D01*
X54344761Y-118520000D01*
X54487619Y-118472380D01*
X54582857Y-118472380D01*
X54725714Y-118520000D01*
X54773333Y-118567619D01*
X55106666Y-118472380D02*
X55773333Y-118472380D01*
X55344761Y-119472380D01*
%TO.C,C9*%
X65333333Y-116607142D02*
X65285714Y-116654761D01*
X65142857Y-116702380D01*
X65047619Y-116702380D01*
X64904761Y-116654761D01*
X64809523Y-116559523D01*
X64761904Y-116464285D01*
X64714285Y-116273809D01*
X64714285Y-116130952D01*
X64761904Y-115940476D01*
X64809523Y-115845238D01*
X64904761Y-115750000D01*
X65047619Y-115702380D01*
X65142857Y-115702380D01*
X65285714Y-115750000D01*
X65333333Y-115797619D01*
X65809523Y-116702380D02*
X66000000Y-116702380D01*
X66095238Y-116654761D01*
X66142857Y-116607142D01*
X66238095Y-116464285D01*
X66285714Y-116273809D01*
X66285714Y-115892857D01*
X66238095Y-115797619D01*
X66190476Y-115750000D01*
X66095238Y-115702380D01*
X65904761Y-115702380D01*
X65809523Y-115750000D01*
X65761904Y-115797619D01*
X65714285Y-115892857D01*
X65714285Y-116130952D01*
X65761904Y-116226190D01*
X65809523Y-116273809D01*
X65904761Y-116321428D01*
X66095238Y-116321428D01*
X66190476Y-116273809D01*
X66238095Y-116226190D01*
X66285714Y-116130952D01*
%TO.C,R22*%
X58927142Y-99292380D02*
X58593809Y-98816190D01*
X58355714Y-99292380D02*
X58355714Y-98292380D01*
X58736666Y-98292380D01*
X58831904Y-98340000D01*
X58879523Y-98387619D01*
X58927142Y-98482857D01*
X58927142Y-98625714D01*
X58879523Y-98720952D01*
X58831904Y-98768571D01*
X58736666Y-98816190D01*
X58355714Y-98816190D01*
X59308095Y-98387619D02*
X59355714Y-98340000D01*
X59450952Y-98292380D01*
X59689047Y-98292380D01*
X59784285Y-98340000D01*
X59831904Y-98387619D01*
X59879523Y-98482857D01*
X59879523Y-98578095D01*
X59831904Y-98720952D01*
X59260476Y-99292380D01*
X59879523Y-99292380D01*
X60260476Y-98387619D02*
X60308095Y-98340000D01*
X60403333Y-98292380D01*
X60641428Y-98292380D01*
X60736666Y-98340000D01*
X60784285Y-98387619D01*
X60831904Y-98482857D01*
X60831904Y-98578095D01*
X60784285Y-98720952D01*
X60212857Y-99292380D01*
X60831904Y-99292380D01*
%TO.C,D10*%
X74735714Y-133272380D02*
X74735714Y-132272380D01*
X74973809Y-132272380D01*
X75116666Y-132320000D01*
X75211904Y-132415238D01*
X75259523Y-132510476D01*
X75307142Y-132700952D01*
X75307142Y-132843809D01*
X75259523Y-133034285D01*
X75211904Y-133129523D01*
X75116666Y-133224761D01*
X74973809Y-133272380D01*
X74735714Y-133272380D01*
X76259523Y-133272380D02*
X75688095Y-133272380D01*
X75973809Y-133272380D02*
X75973809Y-132272380D01*
X75878571Y-132415238D01*
X75783333Y-132510476D01*
X75688095Y-132558095D01*
X76878571Y-132272380D02*
X76973809Y-132272380D01*
X77069047Y-132320000D01*
X77116666Y-132367619D01*
X77164285Y-132462857D01*
X77211904Y-132653333D01*
X77211904Y-132891428D01*
X77164285Y-133081904D01*
X77116666Y-133177142D01*
X77069047Y-133224761D01*
X76973809Y-133272380D01*
X76878571Y-133272380D01*
X76783333Y-133224761D01*
X76735714Y-133177142D01*
X76688095Y-133081904D01*
X76640476Y-132891428D01*
X76640476Y-132653333D01*
X76688095Y-132462857D01*
X76735714Y-132367619D01*
X76783333Y-132320000D01*
X76878571Y-132272380D01*
%TO.C,R31*%
X59447142Y-133769046D02*
X59113809Y-133292856D01*
X58875714Y-133769046D02*
X58875714Y-132769046D01*
X59256666Y-132769046D01*
X59351904Y-132816666D01*
X59399523Y-132864285D01*
X59447142Y-132959523D01*
X59447142Y-133102380D01*
X59399523Y-133197618D01*
X59351904Y-133245237D01*
X59256666Y-133292856D01*
X58875714Y-133292856D01*
X59780476Y-132769046D02*
X60399523Y-132769046D01*
X60066190Y-133149999D01*
X60209047Y-133149999D01*
X60304285Y-133197618D01*
X60351904Y-133245237D01*
X60399523Y-133340475D01*
X60399523Y-133578570D01*
X60351904Y-133673808D01*
X60304285Y-133721427D01*
X60209047Y-133769046D01*
X59923333Y-133769046D01*
X59828095Y-133721427D01*
X59780476Y-133673808D01*
X61351904Y-133769046D02*
X60780476Y-133769046D01*
X61066190Y-133769046D02*
X61066190Y-132769046D01*
X60970952Y-132911904D01*
X60875714Y-133007142D01*
X60780476Y-133054761D01*
%TO.C,C10*%
X64857142Y-102857142D02*
X64809523Y-102904761D01*
X64666666Y-102952380D01*
X64571428Y-102952380D01*
X64428571Y-102904761D01*
X64333333Y-102809523D01*
X64285714Y-102714285D01*
X64238095Y-102523809D01*
X64238095Y-102380952D01*
X64285714Y-102190476D01*
X64333333Y-102095238D01*
X64428571Y-102000000D01*
X64571428Y-101952380D01*
X64666666Y-101952380D01*
X64809523Y-102000000D01*
X64857142Y-102047619D01*
X65809523Y-102952380D02*
X65238095Y-102952380D01*
X65523809Y-102952380D02*
X65523809Y-101952380D01*
X65428571Y-102095238D01*
X65333333Y-102190476D01*
X65238095Y-102238095D01*
X66428571Y-101952380D02*
X66523809Y-101952380D01*
X66619047Y-102000000D01*
X66666666Y-102047619D01*
X66714285Y-102142857D01*
X66761904Y-102333333D01*
X66761904Y-102571428D01*
X66714285Y-102761904D01*
X66666666Y-102857142D01*
X66619047Y-102904761D01*
X66523809Y-102952380D01*
X66428571Y-102952380D01*
X66333333Y-102904761D01*
X66285714Y-102857142D01*
X66238095Y-102761904D01*
X66190476Y-102571428D01*
X66190476Y-102333333D01*
X66238095Y-102142857D01*
X66285714Y-102047619D01*
X66333333Y-102000000D01*
X66428571Y-101952380D01*
%TO.C,R20*%
X107007142Y-121404880D02*
X106673809Y-120928690D01*
X106435714Y-121404880D02*
X106435714Y-120404880D01*
X106816666Y-120404880D01*
X106911904Y-120452500D01*
X106959523Y-120500119D01*
X107007142Y-120595357D01*
X107007142Y-120738214D01*
X106959523Y-120833452D01*
X106911904Y-120881071D01*
X106816666Y-120928690D01*
X106435714Y-120928690D01*
X107388095Y-120500119D02*
X107435714Y-120452500D01*
X107530952Y-120404880D01*
X107769047Y-120404880D01*
X107864285Y-120452500D01*
X107911904Y-120500119D01*
X107959523Y-120595357D01*
X107959523Y-120690595D01*
X107911904Y-120833452D01*
X107340476Y-121404880D01*
X107959523Y-121404880D01*
X108578571Y-120404880D02*
X108673809Y-120404880D01*
X108769047Y-120452500D01*
X108816666Y-120500119D01*
X108864285Y-120595357D01*
X108911904Y-120785833D01*
X108911904Y-121023928D01*
X108864285Y-121214404D01*
X108816666Y-121309642D01*
X108769047Y-121357261D01*
X108673809Y-121404880D01*
X108578571Y-121404880D01*
X108483333Y-121357261D01*
X108435714Y-121309642D01*
X108388095Y-121214404D01*
X108340476Y-121023928D01*
X108340476Y-120785833D01*
X108388095Y-120595357D01*
X108435714Y-120500119D01*
X108483333Y-120452500D01*
X108578571Y-120404880D01*
%TO.C,J1*%
X46186666Y-94272380D02*
X46186666Y-94986666D01*
X46139047Y-95129523D01*
X46043809Y-95224761D01*
X45900952Y-95272380D01*
X45805714Y-95272380D01*
X47186666Y-95272380D02*
X46615238Y-95272380D01*
X46900952Y-95272380D02*
X46900952Y-94272380D01*
X46805714Y-94415238D01*
X46710476Y-94510476D01*
X46615238Y-94558095D01*
%TO.C,D9*%
X74551904Y-138812380D02*
X74551904Y-137812380D01*
X74790000Y-137812380D01*
X74932857Y-137860000D01*
X75028095Y-137955238D01*
X75075714Y-138050476D01*
X75123333Y-138240952D01*
X75123333Y-138383809D01*
X75075714Y-138574285D01*
X75028095Y-138669523D01*
X74932857Y-138764761D01*
X74790000Y-138812380D01*
X74551904Y-138812380D01*
X75599523Y-138812380D02*
X75790000Y-138812380D01*
X75885238Y-138764761D01*
X75932857Y-138717142D01*
X76028095Y-138574285D01*
X76075714Y-138383809D01*
X76075714Y-138002857D01*
X76028095Y-137907619D01*
X75980476Y-137860000D01*
X75885238Y-137812380D01*
X75694761Y-137812380D01*
X75599523Y-137860000D01*
X75551904Y-137907619D01*
X75504285Y-138002857D01*
X75504285Y-138240952D01*
X75551904Y-138336190D01*
X75599523Y-138383809D01*
X75694761Y-138431428D01*
X75885238Y-138431428D01*
X75980476Y-138383809D01*
X76028095Y-138336190D01*
X76075714Y-138240952D01*
%TO.C,R26*%
X102327142Y-133535714D02*
X101993809Y-133059524D01*
X101755714Y-133535714D02*
X101755714Y-132535714D01*
X102136666Y-132535714D01*
X102231904Y-132583334D01*
X102279523Y-132630953D01*
X102327142Y-132726191D01*
X102327142Y-132869048D01*
X102279523Y-132964286D01*
X102231904Y-133011905D01*
X102136666Y-133059524D01*
X101755714Y-133059524D01*
X102708095Y-132630953D02*
X102755714Y-132583334D01*
X102850952Y-132535714D01*
X103089047Y-132535714D01*
X103184285Y-132583334D01*
X103231904Y-132630953D01*
X103279523Y-132726191D01*
X103279523Y-132821429D01*
X103231904Y-132964286D01*
X102660476Y-133535714D01*
X103279523Y-133535714D01*
X104136666Y-132535714D02*
X103946190Y-132535714D01*
X103850952Y-132583334D01*
X103803333Y-132630953D01*
X103708095Y-132773810D01*
X103660476Y-132964286D01*
X103660476Y-133345238D01*
X103708095Y-133440476D01*
X103755714Y-133488095D01*
X103850952Y-133535714D01*
X104041428Y-133535714D01*
X104136666Y-133488095D01*
X104184285Y-133440476D01*
X104231904Y-133345238D01*
X104231904Y-133107143D01*
X104184285Y-133011905D01*
X104136666Y-132964286D01*
X104041428Y-132916667D01*
X103850952Y-132916667D01*
X103755714Y-132964286D01*
X103708095Y-133011905D01*
X103660476Y-133107143D01*
%TO.C,A1*%
X72875714Y-45156666D02*
X73351904Y-45156666D01*
X72780476Y-45442380D02*
X73113809Y-44442380D01*
X73447142Y-45442380D01*
X74304285Y-45442380D02*
X73732857Y-45442380D01*
X74018571Y-45442380D02*
X74018571Y-44442380D01*
X73923333Y-44585238D01*
X73828095Y-44680476D01*
X73732857Y-44728095D01*
%TO.C,R8*%
X98054762Y-99027380D02*
X97721429Y-98551190D01*
X97483333Y-99027380D02*
X97483333Y-98027380D01*
X97864286Y-98027380D01*
X97959524Y-98075000D01*
X98007143Y-98122619D01*
X98054762Y-98217857D01*
X98054762Y-98360714D01*
X98007143Y-98455952D01*
X97959524Y-98503571D01*
X97864286Y-98551190D01*
X97483333Y-98551190D01*
X98626190Y-98455952D02*
X98530952Y-98408333D01*
X98483333Y-98360714D01*
X98435714Y-98265476D01*
X98435714Y-98217857D01*
X98483333Y-98122619D01*
X98530952Y-98075000D01*
X98626190Y-98027380D01*
X98816667Y-98027380D01*
X98911905Y-98075000D01*
X98959524Y-98122619D01*
X99007143Y-98217857D01*
X99007143Y-98265476D01*
X98959524Y-98360714D01*
X98911905Y-98408333D01*
X98816667Y-98455952D01*
X98626190Y-98455952D01*
X98530952Y-98503571D01*
X98483333Y-98551190D01*
X98435714Y-98646428D01*
X98435714Y-98836904D01*
X98483333Y-98932142D01*
X98530952Y-98979761D01*
X98626190Y-99027380D01*
X98816667Y-99027380D01*
X98911905Y-98979761D01*
X98959524Y-98932142D01*
X99007143Y-98836904D01*
X99007143Y-98646428D01*
X98959524Y-98551190D01*
X98911905Y-98503571D01*
X98816667Y-98455952D01*
%TO.C,R16*%
X83959142Y-37474880D02*
X83625809Y-36998690D01*
X83387714Y-37474880D02*
X83387714Y-36474880D01*
X83768666Y-36474880D01*
X83863904Y-36522500D01*
X83911523Y-36570119D01*
X83959142Y-36665357D01*
X83959142Y-36808214D01*
X83911523Y-36903452D01*
X83863904Y-36951071D01*
X83768666Y-36998690D01*
X83387714Y-36998690D01*
X84911523Y-37474880D02*
X84340095Y-37474880D01*
X84625809Y-37474880D02*
X84625809Y-36474880D01*
X84530571Y-36617738D01*
X84435333Y-36712976D01*
X84340095Y-36760595D01*
X85768666Y-36474880D02*
X85578190Y-36474880D01*
X85482952Y-36522500D01*
X85435333Y-36570119D01*
X85340095Y-36712976D01*
X85292476Y-36903452D01*
X85292476Y-37284404D01*
X85340095Y-37379642D01*
X85387714Y-37427261D01*
X85482952Y-37474880D01*
X85673428Y-37474880D01*
X85768666Y-37427261D01*
X85816285Y-37379642D01*
X85863904Y-37284404D01*
X85863904Y-37046309D01*
X85816285Y-36951071D01*
X85768666Y-36903452D01*
X85673428Y-36855833D01*
X85482952Y-36855833D01*
X85387714Y-36903452D01*
X85340095Y-36951071D01*
X85292476Y-37046309D01*
%TO.C,C4*%
X98720833Y-110082142D02*
X98673214Y-110129761D01*
X98530357Y-110177380D01*
X98435119Y-110177380D01*
X98292261Y-110129761D01*
X98197023Y-110034523D01*
X98149404Y-109939285D01*
X98101785Y-109748809D01*
X98101785Y-109605952D01*
X98149404Y-109415476D01*
X98197023Y-109320238D01*
X98292261Y-109225000D01*
X98435119Y-109177380D01*
X98530357Y-109177380D01*
X98673214Y-109225000D01*
X98720833Y-109272619D01*
X99577976Y-109510714D02*
X99577976Y-110177380D01*
X99339880Y-109129761D02*
X99101785Y-109844047D01*
X99720833Y-109844047D01*
%TO.C,R15*%
X80468050Y-99192380D02*
X80134717Y-98716190D01*
X79896622Y-99192380D02*
X79896622Y-98192380D01*
X80277574Y-98192380D01*
X80372812Y-98240000D01*
X80420431Y-98287619D01*
X80468050Y-98382857D01*
X80468050Y-98525714D01*
X80420431Y-98620952D01*
X80372812Y-98668571D01*
X80277574Y-98716190D01*
X79896622Y-98716190D01*
X81420431Y-99192380D02*
X80849003Y-99192380D01*
X81134717Y-99192380D02*
X81134717Y-98192380D01*
X81039479Y-98335238D01*
X80944241Y-98430476D01*
X80849003Y-98478095D01*
X82325193Y-98192380D02*
X81849003Y-98192380D01*
X81801384Y-98668571D01*
X81849003Y-98620952D01*
X81944241Y-98573333D01*
X82182336Y-98573333D01*
X82277574Y-98620952D01*
X82325193Y-98668571D01*
X82372812Y-98763809D01*
X82372812Y-99001904D01*
X82325193Y-99097142D01*
X82277574Y-99144761D01*
X82182336Y-99192380D01*
X81944241Y-99192380D01*
X81849003Y-99144761D01*
X81801384Y-99097142D01*
%TO.C,C15*%
X108217142Y-112167142D02*
X108169523Y-112214761D01*
X108026666Y-112262380D01*
X107931428Y-112262380D01*
X107788571Y-112214761D01*
X107693333Y-112119523D01*
X107645714Y-112024285D01*
X107598095Y-111833809D01*
X107598095Y-111690952D01*
X107645714Y-111500476D01*
X107693333Y-111405238D01*
X107788571Y-111310000D01*
X107931428Y-111262380D01*
X108026666Y-111262380D01*
X108169523Y-111310000D01*
X108217142Y-111357619D01*
X109169523Y-112262380D02*
X108598095Y-112262380D01*
X108883809Y-112262380D02*
X108883809Y-111262380D01*
X108788571Y-111405238D01*
X108693333Y-111500476D01*
X108598095Y-111548095D01*
X110074285Y-111262380D02*
X109598095Y-111262380D01*
X109550476Y-111738571D01*
X109598095Y-111690952D01*
X109693333Y-111643333D01*
X109931428Y-111643333D01*
X110026666Y-111690952D01*
X110074285Y-111738571D01*
X110121904Y-111833809D01*
X110121904Y-112071904D01*
X110074285Y-112167142D01*
X110026666Y-112214761D01*
X109931428Y-112262380D01*
X109693333Y-112262380D01*
X109598095Y-112214761D01*
X109550476Y-112167142D01*
%TO.C,R5*%
X60543333Y-125952380D02*
X60210000Y-125476190D01*
X59971904Y-125952380D02*
X59971904Y-124952380D01*
X60352857Y-124952380D01*
X60448095Y-125000000D01*
X60495714Y-125047619D01*
X60543333Y-125142857D01*
X60543333Y-125285714D01*
X60495714Y-125380952D01*
X60448095Y-125428571D01*
X60352857Y-125476190D01*
X59971904Y-125476190D01*
X61448095Y-124952380D02*
X60971904Y-124952380D01*
X60924285Y-125428571D01*
X60971904Y-125380952D01*
X61067142Y-125333333D01*
X61305238Y-125333333D01*
X61400476Y-125380952D01*
X61448095Y-125428571D01*
X61495714Y-125523809D01*
X61495714Y-125761904D01*
X61448095Y-125857142D01*
X61400476Y-125904761D01*
X61305238Y-125952380D01*
X61067142Y-125952380D01*
X60971904Y-125904761D01*
X60924285Y-125857142D01*
%TO.C,C13*%
X106617142Y-116809642D02*
X106569523Y-116857261D01*
X106426666Y-116904880D01*
X106331428Y-116904880D01*
X106188571Y-116857261D01*
X106093333Y-116762023D01*
X106045714Y-116666785D01*
X105998095Y-116476309D01*
X105998095Y-116333452D01*
X106045714Y-116142976D01*
X106093333Y-116047738D01*
X106188571Y-115952500D01*
X106331428Y-115904880D01*
X106426666Y-115904880D01*
X106569523Y-115952500D01*
X106617142Y-116000119D01*
X107569523Y-116904880D02*
X106998095Y-116904880D01*
X107283809Y-116904880D02*
X107283809Y-115904880D01*
X107188571Y-116047738D01*
X107093333Y-116142976D01*
X106998095Y-116190595D01*
X107902857Y-115904880D02*
X108521904Y-115904880D01*
X108188571Y-116285833D01*
X108331428Y-116285833D01*
X108426666Y-116333452D01*
X108474285Y-116381071D01*
X108521904Y-116476309D01*
X108521904Y-116714404D01*
X108474285Y-116809642D01*
X108426666Y-116857261D01*
X108331428Y-116904880D01*
X108045714Y-116904880D01*
X107950476Y-116857261D01*
X107902857Y-116809642D01*
%TO.C,R10*%
X73386494Y-99052380D02*
X73053161Y-98576190D01*
X72815066Y-99052380D02*
X72815066Y-98052380D01*
X73196018Y-98052380D01*
X73291256Y-98100000D01*
X73338875Y-98147619D01*
X73386494Y-98242857D01*
X73386494Y-98385714D01*
X73338875Y-98480952D01*
X73291256Y-98528571D01*
X73196018Y-98576190D01*
X72815066Y-98576190D01*
X74338875Y-99052380D02*
X73767447Y-99052380D01*
X74053161Y-99052380D02*
X74053161Y-98052380D01*
X73957923Y-98195238D01*
X73862685Y-98290476D01*
X73767447Y-98338095D01*
X74957923Y-98052380D02*
X75053161Y-98052380D01*
X75148399Y-98100000D01*
X75196018Y-98147619D01*
X75243637Y-98242857D01*
X75291256Y-98433333D01*
X75291256Y-98671428D01*
X75243637Y-98861904D01*
X75196018Y-98957142D01*
X75148399Y-99004761D01*
X75053161Y-99052380D01*
X74957923Y-99052380D01*
X74862685Y-99004761D01*
X74815066Y-98957142D01*
X74767447Y-98861904D01*
X74719828Y-98671428D01*
X74719828Y-98433333D01*
X74767447Y-98242857D01*
X74815066Y-98147619D01*
X74862685Y-98100000D01*
X74957923Y-98052380D01*
%TO.C,R29*%
X59447142Y-144362380D02*
X59113809Y-143886190D01*
X58875714Y-144362380D02*
X58875714Y-143362380D01*
X59256666Y-143362380D01*
X59351904Y-143410000D01*
X59399523Y-143457619D01*
X59447142Y-143552857D01*
X59447142Y-143695714D01*
X59399523Y-143790952D01*
X59351904Y-143838571D01*
X59256666Y-143886190D01*
X58875714Y-143886190D01*
X59828095Y-143457619D02*
X59875714Y-143410000D01*
X59970952Y-143362380D01*
X60209047Y-143362380D01*
X60304285Y-143410000D01*
X60351904Y-143457619D01*
X60399523Y-143552857D01*
X60399523Y-143648095D01*
X60351904Y-143790952D01*
X59780476Y-144362380D01*
X60399523Y-144362380D01*
X60875714Y-144362380D02*
X61066190Y-144362380D01*
X61161428Y-144314761D01*
X61209047Y-144267142D01*
X61304285Y-144124285D01*
X61351904Y-143933809D01*
X61351904Y-143552857D01*
X61304285Y-143457619D01*
X61256666Y-143410000D01*
X61161428Y-143362380D01*
X60970952Y-143362380D01*
X60875714Y-143410000D01*
X60828095Y-143457619D01*
X60780476Y-143552857D01*
X60780476Y-143790952D01*
X60828095Y-143886190D01*
X60875714Y-143933809D01*
X60970952Y-143981428D01*
X61161428Y-143981428D01*
X61256666Y-143933809D01*
X61304285Y-143886190D01*
X61351904Y-143790952D01*
%TO.C,R11*%
X70221429Y-98982380D02*
X69888096Y-98506190D01*
X69650001Y-98982380D02*
X69650001Y-97982380D01*
X70030953Y-97982380D01*
X70126191Y-98030000D01*
X70173810Y-98077619D01*
X70221429Y-98172857D01*
X70221429Y-98315714D01*
X70173810Y-98410952D01*
X70126191Y-98458571D01*
X70030953Y-98506190D01*
X69650001Y-98506190D01*
X71173810Y-98982380D02*
X70602382Y-98982380D01*
X70888096Y-98982380D02*
X70888096Y-97982380D01*
X70792858Y-98125238D01*
X70697620Y-98220476D01*
X70602382Y-98268095D01*
X72126191Y-98982380D02*
X71554763Y-98982380D01*
X71840477Y-98982380D02*
X71840477Y-97982380D01*
X71745239Y-98125238D01*
X71650001Y-98220476D01*
X71554763Y-98268095D01*
%TO.C,3.3v*%
X114171428Y-99802380D02*
X114790476Y-99802380D01*
X114457142Y-100183333D01*
X114600000Y-100183333D01*
X114695238Y-100230952D01*
X114742857Y-100278571D01*
X114790476Y-100373809D01*
X114790476Y-100611904D01*
X114742857Y-100707142D01*
X114695238Y-100754761D01*
X114600000Y-100802380D01*
X114314285Y-100802380D01*
X114219047Y-100754761D01*
X114171428Y-100707142D01*
X115219047Y-100707142D02*
X115266666Y-100754761D01*
X115219047Y-100802380D01*
X115171428Y-100754761D01*
X115219047Y-100707142D01*
X115219047Y-100802380D01*
X115600000Y-99802380D02*
X116219047Y-99802380D01*
X115885714Y-100183333D01*
X116028571Y-100183333D01*
X116123809Y-100230952D01*
X116171428Y-100278571D01*
X116219047Y-100373809D01*
X116219047Y-100611904D01*
X116171428Y-100707142D01*
X116123809Y-100754761D01*
X116028571Y-100802380D01*
X115742857Y-100802380D01*
X115647619Y-100754761D01*
X115600000Y-100707142D01*
X116552380Y-100135714D02*
X116790476Y-100802380D01*
X117028571Y-100135714D01*
%TO.C,FB1*%
X109896666Y-94538571D02*
X109563333Y-94538571D01*
X109563333Y-95062380D02*
X109563333Y-94062380D01*
X110039523Y-94062380D01*
X110753809Y-94538571D02*
X110896666Y-94586190D01*
X110944285Y-94633809D01*
X110991904Y-94729047D01*
X110991904Y-94871904D01*
X110944285Y-94967142D01*
X110896666Y-95014761D01*
X110801428Y-95062380D01*
X110420476Y-95062380D01*
X110420476Y-94062380D01*
X110753809Y-94062380D01*
X110849047Y-94110000D01*
X110896666Y-94157619D01*
X110944285Y-94252857D01*
X110944285Y-94348095D01*
X110896666Y-94443333D01*
X110849047Y-94490952D01*
X110753809Y-94538571D01*
X110420476Y-94538571D01*
X111944285Y-95062380D02*
X111372857Y-95062380D01*
X111658571Y-95062380D02*
X111658571Y-94062380D01*
X111563333Y-94205238D01*
X111468095Y-94300476D01*
X111372857Y-94348095D01*
%TO.C,U5*%
X111379404Y-131633619D02*
X111379404Y-132456095D01*
X111427785Y-132552857D01*
X111476166Y-132601238D01*
X111572928Y-132649619D01*
X111766452Y-132649619D01*
X111863214Y-132601238D01*
X111911595Y-132552857D01*
X111959976Y-132456095D01*
X111959976Y-131633619D01*
X112927595Y-131633619D02*
X112443785Y-131633619D01*
X112395404Y-132117428D01*
X112443785Y-132069047D01*
X112540547Y-132020666D01*
X112782452Y-132020666D01*
X112879214Y-132069047D01*
X112927595Y-132117428D01*
X112975976Y-132214190D01*
X112975976Y-132456095D01*
X112927595Y-132552857D01*
X112879214Y-132601238D01*
X112782452Y-132649619D01*
X112540547Y-132649619D01*
X112443785Y-132601238D01*
X112395404Y-132552857D01*
%TO.C,C11*%
X102627142Y-97107142D02*
X102579523Y-97154761D01*
X102436666Y-97202380D01*
X102341428Y-97202380D01*
X102198571Y-97154761D01*
X102103333Y-97059523D01*
X102055714Y-96964285D01*
X102008095Y-96773809D01*
X102008095Y-96630952D01*
X102055714Y-96440476D01*
X102103333Y-96345238D01*
X102198571Y-96250000D01*
X102341428Y-96202380D01*
X102436666Y-96202380D01*
X102579523Y-96250000D01*
X102627142Y-96297619D01*
X103579523Y-97202380D02*
X103008095Y-97202380D01*
X103293809Y-97202380D02*
X103293809Y-96202380D01*
X103198571Y-96345238D01*
X103103333Y-96440476D01*
X103008095Y-96488095D01*
X104531904Y-97202380D02*
X103960476Y-97202380D01*
X104246190Y-97202380D02*
X104246190Y-96202380D01*
X104150952Y-96345238D01*
X104055714Y-96440476D01*
X103960476Y-96488095D01*
%TO.C,C1*%
X80303333Y-119377142D02*
X80255714Y-119424761D01*
X80112857Y-119472380D01*
X80017619Y-119472380D01*
X79874761Y-119424761D01*
X79779523Y-119329523D01*
X79731904Y-119234285D01*
X79684285Y-119043809D01*
X79684285Y-118900952D01*
X79731904Y-118710476D01*
X79779523Y-118615238D01*
X79874761Y-118520000D01*
X80017619Y-118472380D01*
X80112857Y-118472380D01*
X80255714Y-118520000D01*
X80303333Y-118567619D01*
X81255714Y-119472380D02*
X80684285Y-119472380D01*
X80970000Y-119472380D02*
X80970000Y-118472380D01*
X80874761Y-118615238D01*
X80779523Y-118710476D01*
X80684285Y-118758095D01*
%TO.C,D6*%
X87841904Y-142862380D02*
X87841904Y-141862380D01*
X88080000Y-141862380D01*
X88222857Y-141910000D01*
X88318095Y-142005238D01*
X88365714Y-142100476D01*
X88413333Y-142290952D01*
X88413333Y-142433809D01*
X88365714Y-142624285D01*
X88318095Y-142719523D01*
X88222857Y-142814761D01*
X88080000Y-142862380D01*
X87841904Y-142862380D01*
X89270476Y-141862380D02*
X89080000Y-141862380D01*
X88984761Y-141910000D01*
X88937142Y-141957619D01*
X88841904Y-142100476D01*
X88794285Y-142290952D01*
X88794285Y-142671904D01*
X88841904Y-142767142D01*
X88889523Y-142814761D01*
X88984761Y-142862380D01*
X89175238Y-142862380D01*
X89270476Y-142814761D01*
X89318095Y-142767142D01*
X89365714Y-142671904D01*
X89365714Y-142433809D01*
X89318095Y-142338571D01*
X89270476Y-142290952D01*
X89175238Y-142243333D01*
X88984761Y-142243333D01*
X88889523Y-142290952D01*
X88841904Y-142338571D01*
X88794285Y-142433809D01*
%TO.C,R13*%
X87405322Y-99052380D02*
X87071989Y-98576190D01*
X86833894Y-99052380D02*
X86833894Y-98052380D01*
X87214846Y-98052380D01*
X87310084Y-98100000D01*
X87357703Y-98147619D01*
X87405322Y-98242857D01*
X87405322Y-98385714D01*
X87357703Y-98480952D01*
X87310084Y-98528571D01*
X87214846Y-98576190D01*
X86833894Y-98576190D01*
X88357703Y-99052380D02*
X87786275Y-99052380D01*
X88071989Y-99052380D02*
X88071989Y-98052380D01*
X87976751Y-98195238D01*
X87881513Y-98290476D01*
X87786275Y-98338095D01*
X88691037Y-98052380D02*
X89310084Y-98052380D01*
X88976751Y-98433333D01*
X89119608Y-98433333D01*
X89214846Y-98480952D01*
X89262465Y-98528571D01*
X89310084Y-98623809D01*
X89310084Y-98861904D01*
X89262465Y-98957142D01*
X89214846Y-99004761D01*
X89119608Y-99052380D01*
X88833894Y-99052380D01*
X88738656Y-99004761D01*
X88691037Y-98957142D01*
%TO.C,R6*%
X60583333Y-119702380D02*
X60250000Y-119226190D01*
X60011904Y-119702380D02*
X60011904Y-118702380D01*
X60392857Y-118702380D01*
X60488095Y-118750000D01*
X60535714Y-118797619D01*
X60583333Y-118892857D01*
X60583333Y-119035714D01*
X60535714Y-119130952D01*
X60488095Y-119178571D01*
X60392857Y-119226190D01*
X60011904Y-119226190D01*
X61440476Y-118702380D02*
X61250000Y-118702380D01*
X61154761Y-118750000D01*
X61107142Y-118797619D01*
X61011904Y-118940476D01*
X60964285Y-119130952D01*
X60964285Y-119511904D01*
X61011904Y-119607142D01*
X61059523Y-119654761D01*
X61154761Y-119702380D01*
X61345238Y-119702380D01*
X61440476Y-119654761D01*
X61488095Y-119607142D01*
X61535714Y-119511904D01*
X61535714Y-119273809D01*
X61488095Y-119178571D01*
X61440476Y-119130952D01*
X61345238Y-119083333D01*
X61154761Y-119083333D01*
X61059523Y-119130952D01*
X61011904Y-119178571D01*
X60964285Y-119273809D01*
%TO.C,SW2*%
X55386666Y-34614761D02*
X55529523Y-34662380D01*
X55767619Y-34662380D01*
X55862857Y-34614761D01*
X55910476Y-34567142D01*
X55958095Y-34471904D01*
X55958095Y-34376666D01*
X55910476Y-34281428D01*
X55862857Y-34233809D01*
X55767619Y-34186190D01*
X55577142Y-34138571D01*
X55481904Y-34090952D01*
X55434285Y-34043333D01*
X55386666Y-33948095D01*
X55386666Y-33852857D01*
X55434285Y-33757619D01*
X55481904Y-33710000D01*
X55577142Y-33662380D01*
X55815238Y-33662380D01*
X55958095Y-33710000D01*
X56291428Y-33662380D02*
X56529523Y-34662380D01*
X56720000Y-33948095D01*
X56910476Y-34662380D01*
X57148571Y-33662380D01*
X57481904Y-33757619D02*
X57529523Y-33710000D01*
X57624761Y-33662380D01*
X57862857Y-33662380D01*
X57958095Y-33710000D01*
X58005714Y-33757619D01*
X58053333Y-33852857D01*
X58053333Y-33948095D01*
X58005714Y-34090952D01*
X57434285Y-34662380D01*
X58053333Y-34662380D01*
%TO.C,D7*%
X82831904Y-145252380D02*
X82831904Y-144252380D01*
X83070000Y-144252380D01*
X83212857Y-144300000D01*
X83308095Y-144395238D01*
X83355714Y-144490476D01*
X83403333Y-144680952D01*
X83403333Y-144823809D01*
X83355714Y-145014285D01*
X83308095Y-145109523D01*
X83212857Y-145204761D01*
X83070000Y-145252380D01*
X82831904Y-145252380D01*
X83736666Y-144252380D02*
X84403333Y-144252380D01*
X83974761Y-145252380D01*
%TO.C,U4*%
X114178095Y-103742380D02*
X114178095Y-104551904D01*
X114225714Y-104647142D01*
X114273333Y-104694761D01*
X114368571Y-104742380D01*
X114559047Y-104742380D01*
X114654285Y-104694761D01*
X114701904Y-104647142D01*
X114749523Y-104551904D01*
X114749523Y-103742380D01*
X115654285Y-104075714D02*
X115654285Y-104742380D01*
X115416190Y-103694761D02*
X115178095Y-104409047D01*
X115797142Y-104409047D01*
%TO.C,R30*%
X59447142Y-139065712D02*
X59113809Y-138589522D01*
X58875714Y-139065712D02*
X58875714Y-138065712D01*
X59256666Y-138065712D01*
X59351904Y-138113332D01*
X59399523Y-138160951D01*
X59447142Y-138256189D01*
X59447142Y-138399046D01*
X59399523Y-138494284D01*
X59351904Y-138541903D01*
X59256666Y-138589522D01*
X58875714Y-138589522D01*
X59780476Y-138065712D02*
X60399523Y-138065712D01*
X60066190Y-138446665D01*
X60209047Y-138446665D01*
X60304285Y-138494284D01*
X60351904Y-138541903D01*
X60399523Y-138637141D01*
X60399523Y-138875236D01*
X60351904Y-138970474D01*
X60304285Y-139018093D01*
X60209047Y-139065712D01*
X59923333Y-139065712D01*
X59828095Y-139018093D01*
X59780476Y-138970474D01*
X61018571Y-138065712D02*
X61113809Y-138065712D01*
X61209047Y-138113332D01*
X61256666Y-138160951D01*
X61304285Y-138256189D01*
X61351904Y-138446665D01*
X61351904Y-138684760D01*
X61304285Y-138875236D01*
X61256666Y-138970474D01*
X61209047Y-139018093D01*
X61113809Y-139065712D01*
X61018571Y-139065712D01*
X60923333Y-139018093D01*
X60875714Y-138970474D01*
X60828095Y-138875236D01*
X60780476Y-138684760D01*
X60780476Y-138446665D01*
X60828095Y-138256189D01*
X60875714Y-138160951D01*
X60923333Y-138113332D01*
X61018571Y-138065712D01*
%TO.C,D4*%
X89171904Y-133062380D02*
X89171904Y-132062380D01*
X89410000Y-132062380D01*
X89552857Y-132110000D01*
X89648095Y-132205238D01*
X89695714Y-132300476D01*
X89743333Y-132490952D01*
X89743333Y-132633809D01*
X89695714Y-132824285D01*
X89648095Y-132919523D01*
X89552857Y-133014761D01*
X89410000Y-133062380D01*
X89171904Y-133062380D01*
X90600476Y-132395714D02*
X90600476Y-133062380D01*
X90362380Y-132014761D02*
X90124285Y-132729047D01*
X90743333Y-132729047D01*
%TO.C,R23*%
X61784414Y-99202380D02*
X61451081Y-98726190D01*
X61212986Y-99202380D02*
X61212986Y-98202380D01*
X61593938Y-98202380D01*
X61689176Y-98250000D01*
X61736795Y-98297619D01*
X61784414Y-98392857D01*
X61784414Y-98535714D01*
X61736795Y-98630952D01*
X61689176Y-98678571D01*
X61593938Y-98726190D01*
X61212986Y-98726190D01*
X62165367Y-98297619D02*
X62212986Y-98250000D01*
X62308224Y-98202380D01*
X62546319Y-98202380D01*
X62641557Y-98250000D01*
X62689176Y-98297619D01*
X62736795Y-98392857D01*
X62736795Y-98488095D01*
X62689176Y-98630952D01*
X62117748Y-99202380D01*
X62736795Y-99202380D01*
X63070129Y-98202380D02*
X63689176Y-98202380D01*
X63355843Y-98583333D01*
X63498700Y-98583333D01*
X63593938Y-98630952D01*
X63641557Y-98678571D01*
X63689176Y-98773809D01*
X63689176Y-99011904D01*
X63641557Y-99107142D01*
X63593938Y-99154761D01*
X63498700Y-99202380D01*
X63212986Y-99202380D01*
X63117748Y-99154761D01*
X63070129Y-99107142D01*
%TO.C,J3*%
X101466666Y-37662380D02*
X101466666Y-38376666D01*
X101419047Y-38519523D01*
X101323809Y-38614761D01*
X101180952Y-38662380D01*
X101085714Y-38662380D01*
X101847619Y-37662380D02*
X102466666Y-37662380D01*
X102133333Y-38043333D01*
X102276190Y-38043333D01*
X102371428Y-38090952D01*
X102419047Y-38138571D01*
X102466666Y-38233809D01*
X102466666Y-38471904D01*
X102419047Y-38567142D01*
X102371428Y-38614761D01*
X102276190Y-38662380D01*
X101990476Y-38662380D01*
X101895238Y-38614761D01*
X101847619Y-38567142D01*
%TO.C,R21*%
X90998962Y-99082380D02*
X90665629Y-98606190D01*
X90427534Y-99082380D02*
X90427534Y-98082380D01*
X90808486Y-98082380D01*
X90903724Y-98130000D01*
X90951343Y-98177619D01*
X90998962Y-98272857D01*
X90998962Y-98415714D01*
X90951343Y-98510952D01*
X90903724Y-98558571D01*
X90808486Y-98606190D01*
X90427534Y-98606190D01*
X91379915Y-98177619D02*
X91427534Y-98130000D01*
X91522772Y-98082380D01*
X91760867Y-98082380D01*
X91856105Y-98130000D01*
X91903724Y-98177619D01*
X91951343Y-98272857D01*
X91951343Y-98368095D01*
X91903724Y-98510952D01*
X91332296Y-99082380D01*
X91951343Y-99082380D01*
X92903724Y-99082380D02*
X92332296Y-99082380D01*
X92618010Y-99082380D02*
X92618010Y-98082380D01*
X92522772Y-98225238D01*
X92427534Y-98320476D01*
X92332296Y-98368095D01*
%TO.C,C16*%
X108307142Y-105157142D02*
X108259523Y-105204761D01*
X108116666Y-105252380D01*
X108021428Y-105252380D01*
X107878571Y-105204761D01*
X107783333Y-105109523D01*
X107735714Y-105014285D01*
X107688095Y-104823809D01*
X107688095Y-104680952D01*
X107735714Y-104490476D01*
X107783333Y-104395238D01*
X107878571Y-104300000D01*
X108021428Y-104252380D01*
X108116666Y-104252380D01*
X108259523Y-104300000D01*
X108307142Y-104347619D01*
X109259523Y-105252380D02*
X108688095Y-105252380D01*
X108973809Y-105252380D02*
X108973809Y-104252380D01*
X108878571Y-104395238D01*
X108783333Y-104490476D01*
X108688095Y-104538095D01*
X110116666Y-104252380D02*
X109926190Y-104252380D01*
X109830952Y-104300000D01*
X109783333Y-104347619D01*
X109688095Y-104490476D01*
X109640476Y-104680952D01*
X109640476Y-105061904D01*
X109688095Y-105157142D01*
X109735714Y-105204761D01*
X109830952Y-105252380D01*
X110021428Y-105252380D01*
X110116666Y-105204761D01*
X110164285Y-105157142D01*
X110211904Y-105061904D01*
X110211904Y-104823809D01*
X110164285Y-104728571D01*
X110116666Y-104680952D01*
X110021428Y-104633333D01*
X109830952Y-104633333D01*
X109735714Y-104680952D01*
X109688095Y-104728571D01*
X109640476Y-104823809D01*
%TO.C,R32*%
X59447142Y-128472380D02*
X59113809Y-127996190D01*
X58875714Y-128472380D02*
X58875714Y-127472380D01*
X59256666Y-127472380D01*
X59351904Y-127520000D01*
X59399523Y-127567619D01*
X59447142Y-127662857D01*
X59447142Y-127805714D01*
X59399523Y-127900952D01*
X59351904Y-127948571D01*
X59256666Y-127996190D01*
X58875714Y-127996190D01*
X59780476Y-127472380D02*
X60399523Y-127472380D01*
X60066190Y-127853333D01*
X60209047Y-127853333D01*
X60304285Y-127900952D01*
X60351904Y-127948571D01*
X60399523Y-128043809D01*
X60399523Y-128281904D01*
X60351904Y-128377142D01*
X60304285Y-128424761D01*
X60209047Y-128472380D01*
X59923333Y-128472380D01*
X59828095Y-128424761D01*
X59780476Y-128377142D01*
X60780476Y-127567619D02*
X60828095Y-127520000D01*
X60923333Y-127472380D01*
X61161428Y-127472380D01*
X61256666Y-127520000D01*
X61304285Y-127567619D01*
X61351904Y-127662857D01*
X61351904Y-127758095D01*
X61304285Y-127900952D01*
X60732857Y-128472380D01*
X61351904Y-128472380D01*
%TO.C,Y1*%
X69903809Y-102376190D02*
X69903809Y-102852380D01*
X69570476Y-101852380D02*
X69903809Y-102376190D01*
X70237142Y-101852380D01*
X71094285Y-102852380D02*
X70522857Y-102852380D01*
X70808571Y-102852380D02*
X70808571Y-101852380D01*
X70713333Y-101995238D01*
X70618095Y-102090476D01*
X70522857Y-102138095D01*
%TO.C,D11*%
X79485713Y-130112380D02*
X79485713Y-129112380D01*
X79723808Y-129112380D01*
X79866665Y-129160000D01*
X79961903Y-129255238D01*
X80009522Y-129350476D01*
X80057141Y-129540952D01*
X80057141Y-129683809D01*
X80009522Y-129874285D01*
X79961903Y-129969523D01*
X79866665Y-130064761D01*
X79723808Y-130112380D01*
X79485713Y-130112380D01*
X81009522Y-130112380D02*
X80438094Y-130112380D01*
X80723808Y-130112380D02*
X80723808Y-129112380D01*
X80628570Y-129255238D01*
X80533332Y-129350476D01*
X80438094Y-129398095D01*
X81961903Y-130112380D02*
X81390475Y-130112380D01*
X81676189Y-130112380D02*
X81676189Y-129112380D01*
X81580951Y-129255238D01*
X81485713Y-129350476D01*
X81390475Y-129398095D01*
%TO.C,R1*%
X92583333Y-125952380D02*
X92250000Y-125476190D01*
X92011904Y-125952380D02*
X92011904Y-124952380D01*
X92392857Y-124952380D01*
X92488095Y-125000000D01*
X92535714Y-125047619D01*
X92583333Y-125142857D01*
X92583333Y-125285714D01*
X92535714Y-125380952D01*
X92488095Y-125428571D01*
X92392857Y-125476190D01*
X92011904Y-125476190D01*
X93535714Y-125952380D02*
X92964285Y-125952380D01*
X93250000Y-125952380D02*
X93250000Y-124952380D01*
X93154761Y-125095238D01*
X93059523Y-125190476D01*
X92964285Y-125238095D01*
%TO.C,U1*%
X85265358Y-127501429D02*
X85265358Y-127987142D01*
X85293930Y-128044285D01*
X85322501Y-128072856D01*
X85379644Y-128101428D01*
X85493929Y-128101428D01*
X85551072Y-128072856D01*
X85579644Y-128044285D01*
X85608215Y-127987142D01*
X85608215Y-127501429D01*
X86208214Y-128101428D02*
X85865357Y-128101428D01*
X86036786Y-128101428D02*
X86036786Y-127501429D01*
X85979643Y-127587143D01*
X85922500Y-127644286D01*
X85865357Y-127672857D01*
%TO.C,R2*%
X73933333Y-126702380D02*
X73600000Y-126226190D01*
X73361904Y-126702380D02*
X73361904Y-125702380D01*
X73742857Y-125702380D01*
X73838095Y-125750000D01*
X73885714Y-125797619D01*
X73933333Y-125892857D01*
X73933333Y-126035714D01*
X73885714Y-126130952D01*
X73838095Y-126178571D01*
X73742857Y-126226190D01*
X73361904Y-126226190D01*
X74314285Y-125797619D02*
X74361904Y-125750000D01*
X74457142Y-125702380D01*
X74695238Y-125702380D01*
X74790476Y-125750000D01*
X74838095Y-125797619D01*
X74885714Y-125892857D01*
X74885714Y-125988095D01*
X74838095Y-126130952D01*
X74266666Y-126702380D01*
X74885714Y-126702380D01*
%TO.C,U3*%
X115468095Y-113362380D02*
X115468095Y-114171904D01*
X115515714Y-114267142D01*
X115563333Y-114314761D01*
X115658571Y-114362380D01*
X115849047Y-114362380D01*
X115944285Y-114314761D01*
X115991904Y-114267142D01*
X116039523Y-114171904D01*
X116039523Y-113362380D01*
X116420476Y-113362380D02*
X117039523Y-113362380D01*
X116706190Y-113743333D01*
X116849047Y-113743333D01*
X116944285Y-113790952D01*
X116991904Y-113838571D01*
X117039523Y-113933809D01*
X117039523Y-114171904D01*
X116991904Y-114267142D01*
X116944285Y-114314761D01*
X116849047Y-114362380D01*
X116563333Y-114362380D01*
X116468095Y-114314761D01*
X116420476Y-114267142D01*
%TO.C,U2*%
X82085595Y-114702380D02*
X82085595Y-115511904D01*
X82133214Y-115607142D01*
X82180833Y-115654761D01*
X82276071Y-115702380D01*
X82466547Y-115702380D01*
X82561785Y-115654761D01*
X82609404Y-115607142D01*
X82657023Y-115511904D01*
X82657023Y-114702380D01*
X83085595Y-114797619D02*
X83133214Y-114750000D01*
X83228452Y-114702380D01*
X83466547Y-114702380D01*
X83561785Y-114750000D01*
X83609404Y-114797619D01*
X83657023Y-114892857D01*
X83657023Y-114988095D01*
X83609404Y-115130952D01*
X83037976Y-115702380D01*
X83657023Y-115702380D01*
%TO.C,C3*%
X76383333Y-126607142D02*
X76335714Y-126654761D01*
X76192857Y-126702380D01*
X76097619Y-126702380D01*
X75954761Y-126654761D01*
X75859523Y-126559523D01*
X75811904Y-126464285D01*
X75764285Y-126273809D01*
X75764285Y-126130952D01*
X75811904Y-125940476D01*
X75859523Y-125845238D01*
X75954761Y-125750000D01*
X76097619Y-125702380D01*
X76192857Y-125702380D01*
X76335714Y-125750000D01*
X76383333Y-125797619D01*
X76716666Y-125702380D02*
X77335714Y-125702380D01*
X77002380Y-126083333D01*
X77145238Y-126083333D01*
X77240476Y-126130952D01*
X77288095Y-126178571D01*
X77335714Y-126273809D01*
X77335714Y-126511904D01*
X77288095Y-126607142D01*
X77240476Y-126654761D01*
X77145238Y-126702380D01*
X76859523Y-126702380D01*
X76764285Y-126654761D01*
X76716666Y-126607142D01*
%TO.C,GND*%
X119068095Y-94360000D02*
X118972857Y-94312380D01*
X118830000Y-94312380D01*
X118687142Y-94360000D01*
X118591904Y-94455238D01*
X118544285Y-94550476D01*
X118496666Y-94740952D01*
X118496666Y-94883809D01*
X118544285Y-95074285D01*
X118591904Y-95169523D01*
X118687142Y-95264761D01*
X118830000Y-95312380D01*
X118925238Y-95312380D01*
X119068095Y-95264761D01*
X119115714Y-95217142D01*
X119115714Y-94883809D01*
X118925238Y-94883809D01*
X119544285Y-95312380D02*
X119544285Y-94312380D01*
X120115714Y-95312380D01*
X120115714Y-94312380D01*
X120591904Y-95312380D02*
X120591904Y-94312380D01*
X120830000Y-94312380D01*
X120972857Y-94360000D01*
X121068095Y-94455238D01*
X121115714Y-94550476D01*
X121163333Y-94740952D01*
X121163333Y-94883809D01*
X121115714Y-95074285D01*
X121068095Y-95169523D01*
X120972857Y-95264761D01*
X120830000Y-95312380D01*
X120591904Y-95312380D01*
%TO.C,D8*%
X77251904Y-143382380D02*
X77251904Y-142382380D01*
X77490000Y-142382380D01*
X77632857Y-142430000D01*
X77728095Y-142525238D01*
X77775714Y-142620476D01*
X77823333Y-142810952D01*
X77823333Y-142953809D01*
X77775714Y-143144285D01*
X77728095Y-143239523D01*
X77632857Y-143334761D01*
X77490000Y-143382380D01*
X77251904Y-143382380D01*
X78394761Y-142810952D02*
X78299523Y-142763333D01*
X78251904Y-142715714D01*
X78204285Y-142620476D01*
X78204285Y-142572857D01*
X78251904Y-142477619D01*
X78299523Y-142430000D01*
X78394761Y-142382380D01*
X78585238Y-142382380D01*
X78680476Y-142430000D01*
X78728095Y-142477619D01*
X78775714Y-142572857D01*
X78775714Y-142620476D01*
X78728095Y-142715714D01*
X78680476Y-142763333D01*
X78585238Y-142810952D01*
X78394761Y-142810952D01*
X78299523Y-142858571D01*
X78251904Y-142906190D01*
X78204285Y-143001428D01*
X78204285Y-143191904D01*
X78251904Y-143287142D01*
X78299523Y-143334761D01*
X78394761Y-143382380D01*
X78585238Y-143382380D01*
X78680476Y-143334761D01*
X78728095Y-143287142D01*
X78775714Y-143191904D01*
X78775714Y-143001428D01*
X78728095Y-142906190D01*
X78680476Y-142858571D01*
X78585238Y-142810952D01*
%TO.C,R9*%
X67087555Y-99027380D02*
X66754222Y-98551190D01*
X66516126Y-99027380D02*
X66516126Y-98027380D01*
X66897079Y-98027380D01*
X66992317Y-98075000D01*
X67039936Y-98122619D01*
X67087555Y-98217857D01*
X67087555Y-98360714D01*
X67039936Y-98455952D01*
X66992317Y-98503571D01*
X66897079Y-98551190D01*
X66516126Y-98551190D01*
X67563745Y-99027380D02*
X67754222Y-99027380D01*
X67849460Y-98979761D01*
X67897079Y-98932142D01*
X67992317Y-98789285D01*
X68039936Y-98598809D01*
X68039936Y-98217857D01*
X67992317Y-98122619D01*
X67944698Y-98075000D01*
X67849460Y-98027380D01*
X67658983Y-98027380D01*
X67563745Y-98075000D01*
X67516126Y-98122619D01*
X67468507Y-98217857D01*
X67468507Y-98455952D01*
X67516126Y-98551190D01*
X67563745Y-98598809D01*
X67658983Y-98646428D01*
X67849460Y-98646428D01*
X67944698Y-98598809D01*
X67992317Y-98551190D01*
X68039936Y-98455952D01*
%TO.C,R28*%
X102447142Y-144125714D02*
X102113809Y-143649524D01*
X101875714Y-144125714D02*
X101875714Y-143125714D01*
X102256666Y-143125714D01*
X102351904Y-143173334D01*
X102399523Y-143220953D01*
X102447142Y-143316191D01*
X102447142Y-143459048D01*
X102399523Y-143554286D01*
X102351904Y-143601905D01*
X102256666Y-143649524D01*
X101875714Y-143649524D01*
X102828095Y-143220953D02*
X102875714Y-143173334D01*
X102970952Y-143125714D01*
X103209047Y-143125714D01*
X103304285Y-143173334D01*
X103351904Y-143220953D01*
X103399523Y-143316191D01*
X103399523Y-143411429D01*
X103351904Y-143554286D01*
X102780476Y-144125714D01*
X103399523Y-144125714D01*
X103970952Y-143554286D02*
X103875714Y-143506667D01*
X103828095Y-143459048D01*
X103780476Y-143363810D01*
X103780476Y-143316191D01*
X103828095Y-143220953D01*
X103875714Y-143173334D01*
X103970952Y-143125714D01*
X104161428Y-143125714D01*
X104256666Y-143173334D01*
X104304285Y-143220953D01*
X104351904Y-143316191D01*
X104351904Y-143363810D01*
X104304285Y-143459048D01*
X104256666Y-143506667D01*
X104161428Y-143554286D01*
X103970952Y-143554286D01*
X103875714Y-143601905D01*
X103828095Y-143649524D01*
X103780476Y-143744762D01*
X103780476Y-143935238D01*
X103828095Y-144030476D01*
X103875714Y-144078095D01*
X103970952Y-144125714D01*
X104161428Y-144125714D01*
X104256666Y-144078095D01*
X104304285Y-144030476D01*
X104351904Y-143935238D01*
X104351904Y-143744762D01*
X104304285Y-143649524D01*
X104256666Y-143601905D01*
X104161428Y-143554286D01*
%TO.C,2.5v*%
X97159047Y-121507619D02*
X97206666Y-121460000D01*
X97301904Y-121412380D01*
X97540000Y-121412380D01*
X97635238Y-121460000D01*
X97682857Y-121507619D01*
X97730476Y-121602857D01*
X97730476Y-121698095D01*
X97682857Y-121840952D01*
X97111428Y-122412380D01*
X97730476Y-122412380D01*
X98159047Y-122317142D02*
X98206666Y-122364761D01*
X98159047Y-122412380D01*
X98111428Y-122364761D01*
X98159047Y-122317142D01*
X98159047Y-122412380D01*
X99111428Y-121412380D02*
X98635238Y-121412380D01*
X98587619Y-121888571D01*
X98635238Y-121840952D01*
X98730476Y-121793333D01*
X98968571Y-121793333D01*
X99063809Y-121840952D01*
X99111428Y-121888571D01*
X99159047Y-121983809D01*
X99159047Y-122221904D01*
X99111428Y-122317142D01*
X99063809Y-122364761D01*
X98968571Y-122412380D01*
X98730476Y-122412380D01*
X98635238Y-122364761D01*
X98587619Y-122317142D01*
X99492380Y-121745714D02*
X99730476Y-122412380D01*
X99968571Y-121745714D01*
%TO.C,R14*%
X84041686Y-99072380D02*
X83708353Y-98596190D01*
X83470258Y-99072380D02*
X83470258Y-98072380D01*
X83851210Y-98072380D01*
X83946448Y-98120000D01*
X83994067Y-98167619D01*
X84041686Y-98262857D01*
X84041686Y-98405714D01*
X83994067Y-98500952D01*
X83946448Y-98548571D01*
X83851210Y-98596190D01*
X83470258Y-98596190D01*
X84994067Y-99072380D02*
X84422639Y-99072380D01*
X84708353Y-99072380D02*
X84708353Y-98072380D01*
X84613115Y-98215238D01*
X84517877Y-98310476D01*
X84422639Y-98358095D01*
X85851210Y-98405714D02*
X85851210Y-99072380D01*
X85613115Y-98024761D02*
X85375020Y-98739047D01*
X85994067Y-98739047D01*
%TO.C,D3*%
X95171904Y-37362380D02*
X95171904Y-36362380D01*
X95410000Y-36362380D01*
X95552857Y-36410000D01*
X95648095Y-36505238D01*
X95695714Y-36600476D01*
X95743333Y-36790952D01*
X95743333Y-36933809D01*
X95695714Y-37124285D01*
X95648095Y-37219523D01*
X95552857Y-37314761D01*
X95410000Y-37362380D01*
X95171904Y-37362380D01*
X96076666Y-36362380D02*
X96695714Y-36362380D01*
X96362380Y-36743333D01*
X96505238Y-36743333D01*
X96600476Y-36790952D01*
X96648095Y-36838571D01*
X96695714Y-36933809D01*
X96695714Y-37171904D01*
X96648095Y-37267142D01*
X96600476Y-37314761D01*
X96505238Y-37362380D01*
X96219523Y-37362380D01*
X96124285Y-37314761D01*
X96076666Y-37267142D01*
%TO.C,C18*%
X111147142Y-128317142D02*
X111099523Y-128364761D01*
X110956666Y-128412380D01*
X110861428Y-128412380D01*
X110718571Y-128364761D01*
X110623333Y-128269523D01*
X110575714Y-128174285D01*
X110528095Y-127983809D01*
X110528095Y-127840952D01*
X110575714Y-127650476D01*
X110623333Y-127555238D01*
X110718571Y-127460000D01*
X110861428Y-127412380D01*
X110956666Y-127412380D01*
X111099523Y-127460000D01*
X111147142Y-127507619D01*
X112099523Y-128412380D02*
X111528095Y-128412380D01*
X111813809Y-128412380D02*
X111813809Y-127412380D01*
X111718571Y-127555238D01*
X111623333Y-127650476D01*
X111528095Y-127698095D01*
X112670952Y-127840952D02*
X112575714Y-127793333D01*
X112528095Y-127745714D01*
X112480476Y-127650476D01*
X112480476Y-127602857D01*
X112528095Y-127507619D01*
X112575714Y-127460000D01*
X112670952Y-127412380D01*
X112861428Y-127412380D01*
X112956666Y-127460000D01*
X113004285Y-127507619D01*
X113051904Y-127602857D01*
X113051904Y-127650476D01*
X113004285Y-127745714D01*
X112956666Y-127793333D01*
X112861428Y-127840952D01*
X112670952Y-127840952D01*
X112575714Y-127888571D01*
X112528095Y-127936190D01*
X112480476Y-128031428D01*
X112480476Y-128221904D01*
X112528095Y-128317142D01*
X112575714Y-128364761D01*
X112670952Y-128412380D01*
X112861428Y-128412380D01*
X112956666Y-128364761D01*
X113004285Y-128317142D01*
X113051904Y-128221904D01*
X113051904Y-128031428D01*
X113004285Y-127936190D01*
X112956666Y-127888571D01*
X112861428Y-127840952D01*
%TO.C,C2*%
X90183333Y-125957142D02*
X90135714Y-126004761D01*
X89992857Y-126052380D01*
X89897619Y-126052380D01*
X89754761Y-126004761D01*
X89659523Y-125909523D01*
X89611904Y-125814285D01*
X89564285Y-125623809D01*
X89564285Y-125480952D01*
X89611904Y-125290476D01*
X89659523Y-125195238D01*
X89754761Y-125100000D01*
X89897619Y-125052380D01*
X89992857Y-125052380D01*
X90135714Y-125100000D01*
X90183333Y-125147619D01*
X90564285Y-125147619D02*
X90611904Y-125100000D01*
X90707142Y-125052380D01*
X90945238Y-125052380D01*
X91040476Y-125100000D01*
X91088095Y-125147619D01*
X91135714Y-125242857D01*
X91135714Y-125338095D01*
X91088095Y-125480952D01*
X90516666Y-126052380D01*
X91135714Y-126052380D01*
%TO.C,R18*%
X79027142Y-37452380D02*
X78693809Y-36976190D01*
X78455714Y-37452380D02*
X78455714Y-36452380D01*
X78836666Y-36452380D01*
X78931904Y-36500000D01*
X78979523Y-36547619D01*
X79027142Y-36642857D01*
X79027142Y-36785714D01*
X78979523Y-36880952D01*
X78931904Y-36928571D01*
X78836666Y-36976190D01*
X78455714Y-36976190D01*
X79979523Y-37452380D02*
X79408095Y-37452380D01*
X79693809Y-37452380D02*
X79693809Y-36452380D01*
X79598571Y-36595238D01*
X79503333Y-36690476D01*
X79408095Y-36738095D01*
X80550952Y-36880952D02*
X80455714Y-36833333D01*
X80408095Y-36785714D01*
X80360476Y-36690476D01*
X80360476Y-36642857D01*
X80408095Y-36547619D01*
X80455714Y-36500000D01*
X80550952Y-36452380D01*
X80741428Y-36452380D01*
X80836666Y-36500000D01*
X80884285Y-36547619D01*
X80931904Y-36642857D01*
X80931904Y-36690476D01*
X80884285Y-36785714D01*
X80836666Y-36833333D01*
X80741428Y-36880952D01*
X80550952Y-36880952D01*
X80455714Y-36928571D01*
X80408095Y-36976190D01*
X80360476Y-37071428D01*
X80360476Y-37261904D01*
X80408095Y-37357142D01*
X80455714Y-37404761D01*
X80550952Y-37452380D01*
X80741428Y-37452380D01*
X80836666Y-37404761D01*
X80884285Y-37357142D01*
X80931904Y-37261904D01*
X80931904Y-37071428D01*
X80884285Y-36976190D01*
X80836666Y-36928571D01*
X80741428Y-36880952D01*
%TO.C,D2*%
X87181904Y-37452380D02*
X87181904Y-36452380D01*
X87420000Y-36452380D01*
X87562857Y-36500000D01*
X87658095Y-36595238D01*
X87705714Y-36690476D01*
X87753333Y-36880952D01*
X87753333Y-37023809D01*
X87705714Y-37214285D01*
X87658095Y-37309523D01*
X87562857Y-37404761D01*
X87420000Y-37452380D01*
X87181904Y-37452380D01*
X88134285Y-36547619D02*
X88181904Y-36500000D01*
X88277142Y-36452380D01*
X88515238Y-36452380D01*
X88610476Y-36500000D01*
X88658095Y-36547619D01*
X88705714Y-36642857D01*
X88705714Y-36738095D01*
X88658095Y-36880952D01*
X88086666Y-37452380D01*
X88705714Y-37452380D01*
%TO.C,R17*%
X92455142Y-37469880D02*
X92121809Y-36993690D01*
X91883714Y-37469880D02*
X91883714Y-36469880D01*
X92264666Y-36469880D01*
X92359904Y-36517500D01*
X92407523Y-36565119D01*
X92455142Y-36660357D01*
X92455142Y-36803214D01*
X92407523Y-36898452D01*
X92359904Y-36946071D01*
X92264666Y-36993690D01*
X91883714Y-36993690D01*
X93407523Y-37469880D02*
X92836095Y-37469880D01*
X93121809Y-37469880D02*
X93121809Y-36469880D01*
X93026571Y-36612738D01*
X92931333Y-36707976D01*
X92836095Y-36755595D01*
X93740857Y-36469880D02*
X94407523Y-36469880D01*
X93978952Y-37469880D01*
%TO.C,R7*%
X95508333Y-98977380D02*
X95175000Y-98501190D01*
X94936904Y-98977380D02*
X94936904Y-97977380D01*
X95317857Y-97977380D01*
X95413095Y-98025000D01*
X95460714Y-98072619D01*
X95508333Y-98167857D01*
X95508333Y-98310714D01*
X95460714Y-98405952D01*
X95413095Y-98453571D01*
X95317857Y-98501190D01*
X94936904Y-98501190D01*
X95841666Y-97977380D02*
X96508333Y-97977380D01*
X96079761Y-98977380D01*
%TO.C,5.0v*%
X93232857Y-104402380D02*
X92756666Y-104402380D01*
X92709047Y-104878571D01*
X92756666Y-104830952D01*
X92851904Y-104783333D01*
X93090000Y-104783333D01*
X93185238Y-104830952D01*
X93232857Y-104878571D01*
X93280476Y-104973809D01*
X93280476Y-105211904D01*
X93232857Y-105307142D01*
X93185238Y-105354761D01*
X93090000Y-105402380D01*
X92851904Y-105402380D01*
X92756666Y-105354761D01*
X92709047Y-105307142D01*
X93709047Y-105307142D02*
X93756666Y-105354761D01*
X93709047Y-105402380D01*
X93661428Y-105354761D01*
X93709047Y-105307142D01*
X93709047Y-105402380D01*
X94375714Y-104402380D02*
X94470952Y-104402380D01*
X94566190Y-104450000D01*
X94613809Y-104497619D01*
X94661428Y-104592857D01*
X94709047Y-104783333D01*
X94709047Y-105021428D01*
X94661428Y-105211904D01*
X94613809Y-105307142D01*
X94566190Y-105354761D01*
X94470952Y-105402380D01*
X94375714Y-105402380D01*
X94280476Y-105354761D01*
X94232857Y-105307142D01*
X94185238Y-105211904D01*
X94137619Y-105021428D01*
X94137619Y-104783333D01*
X94185238Y-104592857D01*
X94232857Y-104497619D01*
X94280476Y-104450000D01*
X94375714Y-104402380D01*
X95042380Y-104735714D02*
X95280476Y-105402380D01*
X95518571Y-104735714D01*
%TO.C,SW1*%
X66166666Y-34554761D02*
X66309523Y-34602380D01*
X66547619Y-34602380D01*
X66642857Y-34554761D01*
X66690476Y-34507142D01*
X66738095Y-34411904D01*
X66738095Y-34316666D01*
X66690476Y-34221428D01*
X66642857Y-34173809D01*
X66547619Y-34126190D01*
X66357142Y-34078571D01*
X66261904Y-34030952D01*
X66214285Y-33983333D01*
X66166666Y-33888095D01*
X66166666Y-33792857D01*
X66214285Y-33697619D01*
X66261904Y-33650000D01*
X66357142Y-33602380D01*
X66595238Y-33602380D01*
X66738095Y-33650000D01*
X67071428Y-33602380D02*
X67309523Y-34602380D01*
X67500000Y-33888095D01*
X67690476Y-34602380D01*
X67928571Y-33602380D01*
X68833333Y-34602380D02*
X68261904Y-34602380D01*
X68547619Y-34602380D02*
X68547619Y-33602380D01*
X68452380Y-33745238D01*
X68357142Y-33840476D01*
X68261904Y-33888095D01*
%TO.C,R24*%
X116697142Y-132062380D02*
X116363809Y-131586190D01*
X116125714Y-132062380D02*
X116125714Y-131062380D01*
X116506666Y-131062380D01*
X116601904Y-131110000D01*
X116649523Y-131157619D01*
X116697142Y-131252857D01*
X116697142Y-131395714D01*
X116649523Y-131490952D01*
X116601904Y-131538571D01*
X116506666Y-131586190D01*
X116125714Y-131586190D01*
X117078095Y-131157619D02*
X117125714Y-131110000D01*
X117220952Y-131062380D01*
X117459047Y-131062380D01*
X117554285Y-131110000D01*
X117601904Y-131157619D01*
X117649523Y-131252857D01*
X117649523Y-131348095D01*
X117601904Y-131490952D01*
X117030476Y-132062380D01*
X117649523Y-132062380D01*
X118506666Y-131395714D02*
X118506666Y-132062380D01*
X118268571Y-131014761D02*
X118030476Y-131729047D01*
X118649523Y-131729047D01*
%TO.C,C6*%
X52383333Y-119407142D02*
X52335714Y-119454761D01*
X52192857Y-119502380D01*
X52097619Y-119502380D01*
X51954761Y-119454761D01*
X51859523Y-119359523D01*
X51811904Y-119264285D01*
X51764285Y-119073809D01*
X51764285Y-118930952D01*
X51811904Y-118740476D01*
X51859523Y-118645238D01*
X51954761Y-118550000D01*
X52097619Y-118502380D01*
X52192857Y-118502380D01*
X52335714Y-118550000D01*
X52383333Y-118597619D01*
X53240476Y-118502380D02*
X53050000Y-118502380D01*
X52954761Y-118550000D01*
X52907142Y-118597619D01*
X52811904Y-118740476D01*
X52764285Y-118930952D01*
X52764285Y-119311904D01*
X52811904Y-119407142D01*
X52859523Y-119454761D01*
X52954761Y-119502380D01*
X53145238Y-119502380D01*
X53240476Y-119454761D01*
X53288095Y-119407142D01*
X53335714Y-119311904D01*
X53335714Y-119073809D01*
X53288095Y-118978571D01*
X53240476Y-118930952D01*
X53145238Y-118883333D01*
X52954761Y-118883333D01*
X52859523Y-118930952D01*
X52811904Y-118978571D01*
X52764285Y-119073809D01*
%TO.C,C17*%
X105117142Y-105157142D02*
X105069523Y-105204761D01*
X104926666Y-105252380D01*
X104831428Y-105252380D01*
X104688571Y-105204761D01*
X104593333Y-105109523D01*
X104545714Y-105014285D01*
X104498095Y-104823809D01*
X104498095Y-104680952D01*
X104545714Y-104490476D01*
X104593333Y-104395238D01*
X104688571Y-104300000D01*
X104831428Y-104252380D01*
X104926666Y-104252380D01*
X105069523Y-104300000D01*
X105117142Y-104347619D01*
X106069523Y-105252380D02*
X105498095Y-105252380D01*
X105783809Y-105252380D02*
X105783809Y-104252380D01*
X105688571Y-104395238D01*
X105593333Y-104490476D01*
X105498095Y-104538095D01*
X106402857Y-104252380D02*
X107069523Y-104252380D01*
X106640952Y-105252380D01*
D12*
%TO.C,D5*%
X88963930Y-136616584D02*
X92962250Y-135911572D01*
X92962250Y-135911572D02*
X92568068Y-133676059D01*
X92568068Y-133676059D02*
X88569749Y-134381070D01*
%TO.C,R25*%
X103267064Y-128778334D02*
X102812936Y-128778334D01*
X103267064Y-130248334D02*
X102812936Y-130248334D01*
%TO.C,R3*%
X98085000Y-115527064D02*
X98085000Y-115072936D01*
X96615000Y-115527064D02*
X96615000Y-115072936D01*
%TO.C,C14*%
X107431252Y-101125000D02*
X106908748Y-101125000D01*
X107431252Y-102595000D02*
X106908748Y-102595000D01*
%TO.C,C5*%
X95223752Y-112735000D02*
X94701248Y-112735000D01*
X95223752Y-111265000D02*
X94701248Y-111265000D01*
%TO.C,D1*%
X84643758Y-135660236D02*
X80583758Y-135660236D01*
X80583758Y-135660236D02*
X80583758Y-137930236D01*
X80583758Y-137930236D02*
X84643758Y-137930236D01*
%TO.C,C12*%
X107431252Y-98435000D02*
X106908748Y-98435000D01*
X107431252Y-99905000D02*
X106908748Y-99905000D01*
%TO.C,J2*%
X47830000Y-128220000D02*
X47830000Y-135900000D01*
X45170000Y-125620000D02*
X46500000Y-125620000D01*
X45170000Y-128220000D02*
X47830000Y-128220000D01*
X45170000Y-135900000D02*
X47830000Y-135900000D01*
X45170000Y-126950000D02*
X45170000Y-125620000D01*
X45170000Y-128220000D02*
X45170000Y-135900000D01*
%TO.C,C8*%
X56515000Y-122511252D02*
X56515000Y-121988748D01*
X57985000Y-122511252D02*
X57985000Y-121988748D01*
%TO.C,R19*%
X75265000Y-33272936D02*
X75265000Y-33727064D01*
X76735000Y-33272936D02*
X76735000Y-33727064D01*
%TO.C,R27*%
X103267064Y-139371666D02*
X102812936Y-139371666D01*
X103267064Y-140841666D02*
X102812936Y-140841666D01*
%TO.C,R12*%
X76942272Y-95522936D02*
X76942272Y-95977064D01*
X78412272Y-95522936D02*
X78412272Y-95977064D01*
%TO.C,R4*%
X91615000Y-115527064D02*
X91615000Y-115072936D01*
X93085000Y-115527064D02*
X93085000Y-115072936D01*
%TO.C,C7*%
X54165000Y-122523752D02*
X54165000Y-122001248D01*
X55635000Y-122523752D02*
X55635000Y-122001248D01*
%TO.C,C9*%
X64765000Y-112988748D02*
X64765000Y-113511252D01*
X66235000Y-112988748D02*
X66235000Y-113511252D01*
%TO.C,R22*%
X58765000Y-95772936D02*
X58765000Y-96227064D01*
X60235000Y-95772936D02*
X60235000Y-96227064D01*
%TO.C,D10*%
X73366540Y-135911572D02*
X77364860Y-136616584D01*
X73760722Y-133676059D02*
X73366540Y-135911572D01*
X77759041Y-134381070D02*
X73760722Y-133676059D01*
%TO.C,R31*%
X59862936Y-134231666D02*
X60317064Y-134231666D01*
X59862936Y-135701666D02*
X60317064Y-135701666D01*
%TO.C,C10*%
X64765000Y-104988748D02*
X64765000Y-105511252D01*
X66235000Y-104988748D02*
X66235000Y-105511252D01*
%TO.C,R20*%
X109815000Y-121369564D02*
X109815000Y-120915436D01*
X111285000Y-121369564D02*
X111285000Y-120915436D01*
%TO.C,J1*%
X45170000Y-98690000D02*
X45170000Y-116530000D01*
X45170000Y-116530000D02*
X47830000Y-116530000D01*
X45170000Y-98690000D02*
X47830000Y-98690000D01*
X45170000Y-97420000D02*
X45170000Y-96090000D01*
X45170000Y-96090000D02*
X46500000Y-96090000D01*
X47830000Y-98690000D02*
X47830000Y-116530000D01*
%TO.C,D9*%
X77509979Y-138375802D02*
X73993916Y-140405802D01*
X75128916Y-142371680D02*
X78644979Y-140341680D01*
X73993916Y-140405802D02*
X75128916Y-142371680D01*
%TO.C,R26*%
X103267064Y-134075000D02*
X102812936Y-134075000D01*
X103267064Y-135545000D02*
X102812936Y-135545000D01*
%TO.C,A1*%
X45585000Y-51720000D02*
X45585000Y-71790000D01*
X111885000Y-91350000D02*
X111885000Y-79920000D01*
X45585000Y-93000000D02*
X110235000Y-93000000D01*
X111885000Y-39400000D02*
X45585000Y-39400000D01*
X45585000Y-42580000D02*
X43685000Y-42580000D01*
X43685000Y-42580000D02*
X43685000Y-51720000D01*
X43685000Y-51720000D02*
X45585000Y-51720000D01*
X39235000Y-83470000D02*
X45585000Y-83470000D01*
X39235000Y-71790000D02*
X39235000Y-83470000D01*
X45585000Y-39400000D02*
X45585000Y-42580000D01*
X114425000Y-44610000D02*
X111885000Y-42070000D01*
X111885000Y-42070000D02*
X111885000Y-39400000D01*
X110235000Y-93000000D02*
X111885000Y-91350000D01*
X45585000Y-83470000D02*
X45585000Y-93000000D01*
X111885000Y-79920000D02*
X114425000Y-77380000D01*
X45585000Y-71790000D02*
X39235000Y-71790000D01*
X114425000Y-77380000D02*
X114425000Y-44610000D01*
%TO.C,R8*%
X97515000Y-95522936D02*
X97515000Y-95977064D01*
X98985000Y-95522936D02*
X98985000Y-95977064D01*
%TO.C,R16*%
X85417000Y-33749564D02*
X85417000Y-33295436D01*
X83947000Y-33749564D02*
X83947000Y-33295436D01*
%TO.C,C4*%
X94738748Y-109065000D02*
X95261252Y-109065000D01*
X94738748Y-110535000D02*
X95261252Y-110535000D01*
%TO.C,R15*%
X80405908Y-95977064D02*
X80405908Y-95522936D01*
X81875908Y-95977064D02*
X81875908Y-95522936D01*
%TO.C,C15*%
X106935000Y-111728748D02*
X106935000Y-112251252D01*
X105465000Y-111728748D02*
X105465000Y-112251252D01*
%TO.C,R5*%
X60977064Y-122515000D02*
X60522936Y-122515000D01*
X60977064Y-123985000D02*
X60522936Y-123985000D01*
%TO.C,C13*%
X109815000Y-116601252D02*
X109815000Y-116078748D01*
X111285000Y-116601252D02*
X111285000Y-116078748D01*
%TO.C,R10*%
X74948636Y-95522936D02*
X74948636Y-95977064D01*
X73478636Y-95522936D02*
X73478636Y-95977064D01*
%TO.C,R29*%
X59862936Y-144825000D02*
X60317064Y-144825000D01*
X59862936Y-146295000D02*
X60317064Y-146295000D01*
%TO.C,R11*%
X70015000Y-95522936D02*
X70015000Y-95977064D01*
X71485000Y-95522936D02*
X71485000Y-95977064D01*
%TO.C,3.3v*%
X120540000Y-100350000D02*
G75*
G03*
X120540000Y-100350000I-1200000J0D01*
G01*
%TO.C,FB1*%
X111375000Y-97657064D02*
X111375000Y-97202936D01*
X109905000Y-97657064D02*
X109905000Y-97202936D01*
D10*
%TO.C,U5*%
X110150001Y-138800000D02*
X110150001Y-133700000D01*
X110150001Y-138800000D02*
X113850001Y-138800000D01*
X113850001Y-138800000D02*
X113850001Y-133700000D01*
X110150001Y-133700000D02*
X113850001Y-133700000D01*
D13*
X111450001Y-134700001D02*
G75*
G03*
X111450001Y-134700001I-299999J0D01*
G01*
D14*
X109075002Y-133200001D02*
G75*
G03*
X109075002Y-133200001I-125001J0D01*
G01*
D12*
%TO.C,C11*%
X107431252Y-97215000D02*
X106908748Y-97215000D01*
X107431252Y-95745000D02*
X106908748Y-95745000D01*
%TO.C,C1*%
X83511252Y-118265000D02*
X82988748Y-118265000D01*
X83511252Y-119735000D02*
X82988748Y-119735000D01*
%TO.C,D6*%
X91159180Y-142378175D02*
X92294180Y-140412297D01*
X87643117Y-140348175D02*
X91159180Y-142378175D01*
X92294180Y-140412297D02*
X88778117Y-138382297D01*
%TO.C,R13*%
X87333180Y-95522936D02*
X87333180Y-95977064D01*
X88803180Y-95522936D02*
X88803180Y-95977064D01*
%TO.C,R6*%
X60977064Y-121985000D02*
X60522936Y-121985000D01*
X60977064Y-120515000D02*
X60522936Y-120515000D01*
%TO.C,SW2*%
X54500000Y-37500000D02*
X59000000Y-37500000D01*
X59000000Y-31000000D02*
X54500000Y-31000000D01*
X53250000Y-33500000D02*
X53250000Y-35000000D01*
X60250000Y-35000000D02*
X60250000Y-33500000D01*
%TO.C,D7*%
X84169959Y-142419921D02*
X85558560Y-146235073D01*
X87691663Y-145458687D02*
X86303061Y-141643535D01*
X85558560Y-146235073D02*
X87691663Y-145458687D01*
%TO.C,U4*%
X111300000Y-105490000D02*
X117310000Y-105490000D01*
X113550000Y-112310000D02*
X117310000Y-112310000D01*
X117310000Y-105490000D02*
X117310000Y-106750000D01*
X117310000Y-112310000D02*
X117310000Y-111050000D01*
%TO.C,R30*%
X59862936Y-139528332D02*
X60317064Y-139528332D01*
X59862936Y-140998332D02*
X60317064Y-140998332D01*
%TO.C,D4*%
X87747258Y-133090471D02*
X90356976Y-129980331D01*
X88618055Y-128521203D02*
X86008337Y-131631343D01*
X90356976Y-129980331D02*
X88618055Y-128521203D01*
%TO.C,R23*%
X61765000Y-95772936D02*
X61765000Y-96227064D01*
X63235000Y-95772936D02*
X63235000Y-96227064D01*
%TO.C,J3*%
X105940000Y-30595000D02*
X102060000Y-30595000D01*
X100890000Y-32565000D02*
X100890000Y-35065000D01*
X100890000Y-35065000D02*
X101940000Y-35065000D01*
X106060000Y-35065000D02*
X106060000Y-36055000D01*
X107110000Y-35065000D02*
X106060000Y-35065000D01*
X107110000Y-32565000D02*
X107110000Y-35065000D01*
%TO.C,R21*%
X92266820Y-95522936D02*
X92266820Y-95977064D01*
X90796820Y-95522936D02*
X90796820Y-95977064D01*
%TO.C,C16*%
X108045000Y-107368748D02*
X108045000Y-107891252D01*
X109515000Y-107368748D02*
X109515000Y-107891252D01*
%TO.C,R32*%
X59862936Y-130405000D02*
X60317064Y-130405000D01*
X59862936Y-128935000D02*
X60317064Y-128935000D01*
%TO.C,Y1*%
X67725000Y-112435000D02*
X67725000Y-106185000D01*
X72775000Y-112435000D02*
X72775000Y-106185000D01*
X72775000Y-106185000D02*
G75*
G03*
X67725000Y-106185000I-2525000J0D01*
G01*
X67725000Y-112435000D02*
G75*
G03*
X72775000Y-112435000I2525000J0D01*
G01*
%TO.C,D11*%
X75932000Y-129886482D02*
X78541718Y-132996622D01*
X80280639Y-131537494D02*
X77670921Y-128427354D01*
X77670921Y-128427354D02*
X75932000Y-129886482D01*
%TO.C,R1*%
X93485000Y-122522936D02*
X93485000Y-122977064D01*
X92015000Y-122522936D02*
X92015000Y-122977064D01*
D10*
%TO.C,U1*%
X84600002Y-120750000D02*
X81400001Y-120750000D01*
X81400001Y-120750000D02*
X81400001Y-125750000D01*
X84600002Y-120750000D02*
X84600002Y-125750000D01*
X84600002Y-125750000D02*
X81400001Y-125750000D01*
D14*
X85950002Y-126030000D02*
G75*
G03*
X85950002Y-126030000I-125001J0D01*
G01*
D13*
X83900000Y-124750000D02*
G75*
G03*
X83900000Y-124750000I-299999J0D01*
G01*
D12*
%TO.C,R2*%
X74735000Y-123477064D02*
X74735000Y-123022936D01*
X73265000Y-123477064D02*
X73265000Y-123022936D01*
%TO.C,U3*%
X113860000Y-118750000D02*
X113860000Y-116800000D01*
X118980000Y-118750000D02*
X118980000Y-120700000D01*
X118980000Y-118750000D02*
X118980000Y-115300000D01*
X113860000Y-118750000D02*
X113860000Y-120700000D01*
D10*
%TO.C,U2*%
X88000000Y-111150001D02*
X77500000Y-111150001D01*
X88000000Y-111150001D02*
X88000000Y-107350001D01*
X88000000Y-107350001D02*
X77500000Y-107350001D01*
X77500000Y-111150001D02*
X77500000Y-107350001D01*
D14*
X77875001Y-112750001D02*
G75*
G03*
X77875001Y-112750001I-125001J0D01*
G01*
D13*
X78799997Y-110150001D02*
G75*
G03*
X78799997Y-110150001I-299999J0D01*
G01*
D12*
%TO.C,C3*%
X77235000Y-122988748D02*
X77235000Y-123511252D01*
X75765000Y-122988748D02*
X75765000Y-123511252D01*
%TO.C,GND*%
X117290000Y-94860000D02*
G75*
G03*
X117290000Y-94860000I-1200000J0D01*
G01*
%TO.C,D8*%
X79926939Y-141643535D02*
X78538337Y-145458687D01*
X78538337Y-145458687D02*
X80671440Y-146235073D01*
X80671440Y-146235073D02*
X82060041Y-142419921D01*
%TO.C,REF\u002A\u002A*%
G36*
X116835345Y-47521681D02*
G01*
X115732040Y-47521681D01*
X115732040Y-43853991D01*
X115732065Y-43558884D01*
X115732142Y-43269977D01*
X115732266Y-42988192D01*
X115732437Y-42714449D01*
X115732652Y-42449670D01*
X115732909Y-42194775D01*
X115733207Y-41950685D01*
X115733543Y-41718320D01*
X115733915Y-41498602D01*
X115734321Y-41292450D01*
X115734760Y-41100787D01*
X115735229Y-40924532D01*
X115735726Y-40764606D01*
X115736250Y-40621930D01*
X115736798Y-40497426D01*
X115737368Y-40392013D01*
X115737958Y-40306612D01*
X115738567Y-40242144D01*
X115739192Y-40199531D01*
X115739831Y-40179691D01*
X115740035Y-40178307D01*
X115753311Y-40176663D01*
X115788140Y-40175133D01*
X115842091Y-40173752D01*
X115912732Y-40172556D01*
X115997631Y-40171579D01*
X116094358Y-40170857D01*
X116200480Y-40170425D01*
X116291687Y-40170312D01*
X116835345Y-40170312D01*
X116835345Y-47521681D01*
G37*
%TO.C,R9*%
X68021364Y-95522936D02*
X68021364Y-95977064D01*
X66551364Y-95522936D02*
X66551364Y-95977064D01*
%TO.C,R28*%
X103267064Y-144668334D02*
X102812936Y-144668334D01*
X103267064Y-146138334D02*
X102812936Y-146138334D01*
%TO.C,2.5v*%
X103480000Y-121960000D02*
G75*
G03*
X103480000Y-121960000I-1200000J0D01*
G01*
%TO.C,R14*%
X83869544Y-95522936D02*
X83869544Y-95977064D01*
X85339544Y-95522936D02*
X85339544Y-95977064D01*
%TO.C,D3*%
X95040000Y-32500000D02*
X95040000Y-35360000D01*
X96960000Y-35360000D02*
X96960000Y-32500000D01*
X95040000Y-35360000D02*
X96960000Y-35360000D01*
%TO.C,C18*%
X112261252Y-130735000D02*
X111738748Y-130735000D01*
X112261252Y-129265000D02*
X111738748Y-129265000D01*
%TO.C,C2*%
X89515000Y-122488748D02*
X89515000Y-123011252D01*
X90985000Y-122488748D02*
X90985000Y-123011252D01*
%TO.C,R18*%
X80485000Y-33272936D02*
X80485000Y-33727064D01*
X79015000Y-33272936D02*
X79015000Y-33727064D01*
%TO.C,D2*%
X87040000Y-35360000D02*
X88960000Y-35360000D01*
X87040000Y-32500000D02*
X87040000Y-35360000D01*
X88960000Y-35360000D02*
X88960000Y-32500000D01*
%TO.C,R17*%
X92515000Y-33727064D02*
X92515000Y-33272936D01*
X93985000Y-33727064D02*
X93985000Y-33272936D01*
%TO.C,R7*%
X96485000Y-95977064D02*
X96485000Y-95522936D01*
X95015000Y-95977064D02*
X95015000Y-95522936D01*
%TO.C,5.0v*%
X99030000Y-104950000D02*
G75*
G03*
X99030000Y-104950000I-1200000J0D01*
G01*
%TO.C,SW1*%
X71000000Y-35000000D02*
X71000000Y-33500000D01*
X69750000Y-31000000D02*
X65250000Y-31000000D01*
X65250000Y-37500000D02*
X69750000Y-37500000D01*
X64000000Y-33500000D02*
X64000000Y-35000000D01*
%TO.C,R24*%
X116765000Y-135227064D02*
X116765000Y-134772936D01*
X118235000Y-135227064D02*
X118235000Y-134772936D01*
%TO.C,C6*%
X51765000Y-122511252D02*
X51765000Y-121988748D01*
X53235000Y-122511252D02*
X53235000Y-121988748D01*
%TO.C,C17*%
X106965000Y-107931252D02*
X106965000Y-107408748D01*
X105495000Y-107931252D02*
X105495000Y-107408748D01*
%TD*%
M02*
