%TF.GenerationSoftware,KiCad,Pcbnew,(6.0.1)*%
%TF.CreationDate,2022-04-04T17:19:20+02:00*%
%TF.ProjectId,PCB KiCad,50434220-4b69-4436-9164-2e6b69636164,rev?*%
%TF.SameCoordinates,Original*%
%TF.FileFunction,Soldermask,Bot*%
%TF.FilePolarity,Negative*%
%FSLAX46Y46*%
G04 Gerber Fmt 4.6, Leading zero omitted, Abs format (unit mm)*
G04 Created by KiCad (PCBNEW (6.0.1)) date 2022-04-04 17:19:20*
%MOMM*%
%LPD*%
G01*
G04 APERTURE LIST*
%ADD10R,1.700000X1.700000*%
%ADD11O,1.700000X1.700000*%
%ADD12C,3.200000*%
%ADD13R,1.600000X1.600000*%
%ADD14O,1.600000X1.600000*%
%ADD15C,2.000000*%
%ADD16C,1.500000*%
G04 APERTURE END LIST*
D10*
%TO.C,J2*%
X46500000Y-126950000D03*
D11*
X46500000Y-129490000D03*
X46500000Y-132030000D03*
X46500000Y-134570000D03*
%TD*%
D12*
%TO.C,*%
X119000000Y-144000000D03*
%TD*%
%TO.C,*%
X119000000Y-32000000D03*
%TD*%
D10*
%TO.C,J1*%
X46500000Y-97420000D03*
D11*
X46500000Y-99960000D03*
X46500000Y-102500000D03*
X46500000Y-105040000D03*
X46500000Y-107580000D03*
X46500000Y-110120000D03*
X46500000Y-112660000D03*
X46500000Y-115200000D03*
%TD*%
D13*
%TO.C,A1*%
X73655000Y-42070000D03*
D14*
X76195000Y-42070000D03*
X78735000Y-42070000D03*
X81275000Y-42070000D03*
X83815000Y-42070000D03*
X86355000Y-42070000D03*
X88895000Y-42070000D03*
X91435000Y-42070000D03*
X96515000Y-42070000D03*
X99055000Y-42070000D03*
X101595000Y-42070000D03*
X104135000Y-42070000D03*
X106675000Y-42070000D03*
X109215000Y-42070000D03*
X109215000Y-90330000D03*
X106675000Y-90330000D03*
X104135000Y-90330000D03*
X101595000Y-90330000D03*
X99055000Y-90330000D03*
X96515000Y-90330000D03*
X93975000Y-90330000D03*
X91435000Y-90330000D03*
X87375000Y-90330000D03*
X84835000Y-90330000D03*
X82295000Y-90330000D03*
X79755000Y-90330000D03*
X77215000Y-90330000D03*
X74675000Y-90330000D03*
X72135000Y-90330000D03*
X69595000Y-90330000D03*
X67055000Y-90330000D03*
X64515000Y-90330000D03*
%TD*%
D15*
%TO.C,SW2*%
X53500000Y-32000000D03*
X60000000Y-32000000D03*
X53500000Y-36500000D03*
X60000000Y-36500000D03*
%TD*%
D12*
%TO.C,*%
X47000000Y-144000000D03*
%TD*%
D16*
%TO.C,Y1*%
X70250000Y-111750000D03*
X70250000Y-106870000D03*
%TD*%
D12*
%TO.C,REF\u002A\u002A*%
X47000000Y-32000000D03*
%TD*%
D15*
%TO.C,SW1*%
X64250000Y-32000000D03*
X70750000Y-32000000D03*
X70750000Y-36500000D03*
X64250000Y-36500000D03*
%TD*%
M02*
