%TF.GenerationSoftware,KiCad,Pcbnew,(6.0.1)*%
%TF.CreationDate,2022-04-04T17:19:20+02:00*%
%TF.ProjectId,PCB KiCad,50434220-4b69-4436-9164-2e6b69636164,rev?*%
%TF.SameCoordinates,Original*%
%TF.FileFunction,Legend,Bot*%
%TF.FilePolarity,Positive*%
%FSLAX46Y46*%
G04 Gerber Fmt 4.6, Leading zero omitted, Abs format (unit mm)*
G04 Created by KiCad (PCBNEW (6.0.1)) date 2022-04-04 17:19:20*
%MOMM*%
%LPD*%
G01*
G04 APERTURE LIST*
%ADD10C,0.150000*%
G04 APERTURE END LIST*
D10*
X121717619Y-45119047D02*
X121003333Y-45119047D01*
X120860476Y-45166666D01*
X120765238Y-45261904D01*
X120717619Y-45404761D01*
X120717619Y-45500000D01*
X120717619Y-44166666D02*
X120717619Y-44642857D01*
X121717619Y-44642857D01*
X120812857Y-43261904D02*
X120765238Y-43309523D01*
X120717619Y-43452380D01*
X120717619Y-43547619D01*
X120765238Y-43690476D01*
X120860476Y-43785714D01*
X120955714Y-43833333D01*
X121146190Y-43880952D01*
X121289047Y-43880952D01*
X121479523Y-43833333D01*
X121574761Y-43785714D01*
X121670000Y-43690476D01*
X121717619Y-43547619D01*
X121717619Y-43452380D01*
X121670000Y-43309523D01*
X121622380Y-43261904D01*
X121717619Y-42547619D02*
X121003333Y-42547619D01*
X120860476Y-42595238D01*
X120765238Y-42690476D01*
X120717619Y-42833333D01*
X120717619Y-42928571D01*
X120717619Y-41595238D02*
X120717619Y-42071428D01*
X121717619Y-42071428D01*
X120812857Y-40690476D02*
X120765238Y-40738095D01*
X120717619Y-40880952D01*
X120717619Y-40976190D01*
X120765238Y-41119047D01*
X120860476Y-41214285D01*
X120955714Y-41261904D01*
X121146190Y-41309523D01*
X121289047Y-41309523D01*
X121479523Y-41261904D01*
X121574761Y-41214285D01*
X121670000Y-41119047D01*
X121717619Y-40976190D01*
X121717619Y-40880952D01*
X121670000Y-40738095D01*
X121622380Y-40690476D01*
X121717619Y-39976190D02*
X121003333Y-39976190D01*
X120860476Y-40023809D01*
X120765238Y-40119047D01*
X120717619Y-40261904D01*
X120717619Y-40357142D01*
X120717619Y-39023809D02*
X120717619Y-39500000D01*
X121717619Y-39500000D01*
X120812857Y-38119047D02*
X120765238Y-38166666D01*
X120717619Y-38309523D01*
X120717619Y-38404761D01*
X120765238Y-38547619D01*
X120860476Y-38642857D01*
X120955714Y-38690476D01*
X121146190Y-38738095D01*
X121289047Y-38738095D01*
X121479523Y-38690476D01*
X121574761Y-38642857D01*
X121670000Y-38547619D01*
X121717619Y-38404761D01*
X121717619Y-38309523D01*
X121670000Y-38166666D01*
X121622380Y-38119047D01*
X121717619Y-37404761D02*
X121003333Y-37404761D01*
X120860476Y-37452380D01*
X120765238Y-37547619D01*
X120717619Y-37690476D01*
X120717619Y-37785714D01*
X120717619Y-36452380D02*
X120717619Y-36928571D01*
X121717619Y-36928571D01*
X120812857Y-35547619D02*
X120765238Y-35595238D01*
X120717619Y-35738095D01*
X120717619Y-35833333D01*
X120765238Y-35976190D01*
X120860476Y-36071428D01*
X120955714Y-36119047D01*
X121146190Y-36166666D01*
X121289047Y-36166666D01*
X121479523Y-36119047D01*
X121574761Y-36071428D01*
X121670000Y-35976190D01*
X121717619Y-35833333D01*
X121717619Y-35738095D01*
X121670000Y-35595238D01*
X121622380Y-35547619D01*
M02*
