M48
; DRILL file {KiCad (6.0.1)} date Mon Apr  4 17:19:24 2022
; FORMAT={-:-/ absolute / inch / decimal}
; #@! TF.CreationDate,2022-04-04T17:19:24+02:00
; #@! TF.GenerationSoftware,Kicad,Pcbnew,(6.0.1)
; #@! TF.FileFunction,Plated,1,2,PTH
FMAT,2
INCH
; #@! TA.AperFunction,Plated,PTH,ViaDrill
T1C0.0157
; #@! TA.AperFunction,Plated,PTH,ComponentDrill
T2C0.0315
; #@! TA.AperFunction,Plated,PTH,ComponentDrill
T3C0.0394
; #@! TA.AperFunction,Plated,PTH,ComponentDrill
T4C0.0433
%
G90
G05
T1
X1.9291Y-1.6929
X2.0079Y-1.8898
X2.0079Y-4.3701
X2.0472Y-2.9921
X2.126Y-3.5433
X2.2441Y-5.0787
X2.2547Y-5.3827
X2.2591Y-5.1768
X2.342Y-4.2318
X2.3425Y-3.8878
X2.3425Y-3.9665
X2.3622Y-1.5945
X2.3622Y-1.8307
X2.3622Y-4.4882
X2.4508Y-3.9622
X2.4508Y-4.1634
X2.4606Y-3.878
X2.4705Y-3.5531
X2.4902Y-4.7736
X2.5787Y-4.3012
X2.687Y-3.5236
X2.7165Y-2.6772
X2.7264Y-2.3228
X2.7374Y-1.7299
X2.8051Y-4.7835
X2.8346Y-5.0
X2.8346Y-5.4724
X2.9134Y-2.1358
X2.9134Y-4.0945
X2.9823Y-3.8091
X2.9823Y-3.878
X2.9921Y-4.7539
X3.0118Y-4.5669
X3.0807Y-4.9213
X3.0831Y-1.8031
X3.1587Y-4.3598
X3.2008Y-4.0
X3.2185Y-4.8559
X3.2283Y-1.1811
X3.3169Y-4.6063
X3.3465Y-3.9764
X3.3563Y-4.0748
X3.3858Y-2.2835
X3.4547Y-4.7343
X3.4547Y-4.8228
X3.4646Y-1.4134
X3.4646Y-3.8739
X3.4843Y-4.5965
X3.5236Y-4.3799
X3.5335Y-3.7303
X3.6496Y-3.9016
X3.7323Y-3.9016
X3.7402Y-4.5669
X3.7402Y-5.4724
X3.7685Y-4.0602
X3.8091Y-4.9508
X3.8386Y-1.4862
X3.8386Y-1.5354
X3.8504Y-1.3583
X3.8681Y-3.937
X3.9598Y-4.3972
X3.9764Y-4.2421
X3.9961Y-3.7106
X4.0354Y-4.1831
X4.0476Y-3.9476
X4.1043Y-3.7992
X4.1339Y-5.1969
X4.2043Y-5.5614
X4.2087Y-1.3858
X4.2094Y-5.6898
X4.2126Y-4.5669
X4.287Y-5.122
X4.2898Y-5.4945
X4.2913Y-2.3228
X4.3508Y-5.2157
X4.3799Y-5.3543
X4.3799Y-5.4035
X4.4094Y-5.2165
X4.4228Y-3.9803
X4.4488Y-1.2598
X4.4614Y-5.7126
X4.4732Y-3.5693
X4.5929Y-3.8429
X4.6457Y-1.4961
X4.7327Y-5.4366
X4.7638Y-3.5827
X4.7933Y-3.7106
T2
X2.7657Y-4.2075
X2.7657Y-4.3996
T3
X1.8307Y-3.8354
X1.8307Y-3.9354
X1.8307Y-4.0354
X1.8307Y-4.1354
X1.8307Y-4.2354
X1.8307Y-4.3354
X1.8307Y-4.4354
X1.8307Y-4.5354
X1.8307Y-4.998
X1.8307Y-5.098
X1.8307Y-5.198
X1.8307Y-5.298
X2.54Y-3.5563
X2.64Y-3.5563
X2.74Y-3.5563
X2.84Y-3.5563
X2.8998Y-1.6563
X2.94Y-3.5563
X2.9998Y-1.6563
X3.04Y-3.5563
X3.0998Y-1.6563
X3.14Y-3.5563
X3.1998Y-1.6563
X3.24Y-3.5563
X3.2998Y-1.6563
X3.34Y-3.5563
X3.3998Y-1.6563
X3.44Y-3.5563
X3.4998Y-1.6563
X3.5998Y-1.6563
X3.5998Y-3.5563
X3.6998Y-3.5563
X3.7998Y-1.6563
X3.7998Y-3.5563
X3.8998Y-1.6563
X3.8998Y-3.5563
X3.9998Y-1.6563
X3.9998Y-3.5563
X4.0998Y-1.6563
X4.0998Y-3.5563
X4.1998Y-1.6563
X4.1998Y-3.5563
X4.2998Y-1.6563
X4.2998Y-3.5563
T4
X2.1063Y-1.2598
X2.1063Y-1.437
X2.3622Y-1.2598
X2.3622Y-1.437
X2.5295Y-1.2598
X2.5295Y-1.437
X2.7854Y-1.2598
X2.7854Y-1.437
T0
M30
